<svg version="1.1" viewBox="0.0 0.0 868.4068241469816 637.5853018372703" fill="none" stroke="none" stroke-linecap="square" stroke-miterlimit="10" xmlns:xlink="http://www.w3.org/1999/xlink" xmlns="http://www.w3.org/2000/svg"><clipPath id="p.0"><path d="m0 0l868.4068 0l0 637.5853l-868.4068 0l0 -637.5853z" clip-rule="nonzero"/></clipPath><g clip-path="url(#p.0)"><path fill="#000000" fill-opacity="0.0" d="m0 0l868.4068 0l0 637.5853l-868.4068 0z" fill-rule="evenodd"/><path fill="#000000" fill-opacity="0.0" d="m461.55368 103.60199l0 0c0 -25.872375 20.973724 -46.846085 46.8461 -46.846085l217.01648 0c12.424377 0 24.339844 4.9355545 33.125183 13.7209015c8.785339 8.785339 13.720886 20.700829 13.720886 33.125183l0 187.3787c0 25.872375 -20.973694 46.8461 -46.84607 46.8461l-217.01648 0c-25.872375 0 -46.8461 -20.973724 -46.8461 -46.8461z" fill-rule="evenodd"/><path stroke="#000000" stroke-width="1.0" stroke-linejoin="round" stroke-linecap="butt" d="m461.55368 103.60199l0 0c0 -25.872375 20.973724 -46.846085 46.8461 -46.846085l217.01648 0c12.424377 0 24.339844 4.9355545 33.125183 13.7209015c8.785339 8.785339 13.720886 20.700829 13.720886 33.125183l0 187.3787c0 25.872375 -20.973694 46.8461 -46.84607 46.8461l-217.01648 0c-25.872375 0 -46.8461 -20.973724 -46.8461 -46.8461z" fill-rule="evenodd"/><path fill="#000000" d="m584.72565 105.07665l7.109375 -19.390625l2.1875 0l7.171875 19.390625l-1.953125 0l-4.609375 -12.671875q-0.390625 -1.0625 -0.859375 -2.46875q-0.453125 -1.421875 -1.046875 -3.40625l0.390625 0q-0.59375 2.0 -1.0625 3.4375q-0.46875 1.4375 -0.828125 2.4375l-4.53125 12.671875l-1.96875 0zm3.3125 -5.765625l0 -1.640625l9.859375 0l0 1.640625l-9.859375 0zm21.677856 6.03125q-1.90625 0 -3.359375 -0.9375q-1.4375 -0.953125 -2.265625 -2.640625q-0.8125 -1.703125 -0.8125 -3.890625q0 -2.25 0.8125 -3.9375q0.828125 -1.703125 2.265625 -2.65625q1.453125 -0.953125 3.359375 -0.953125q1.09375 0 2.015625 0.328125q0.9375 0.328125 1.640625 0.875q0.71875 0.53125 1.1875 1.1875q0.484375 0.65625 0.703125 1.328125l-1.671875 0.515625q-0.125 -0.40625 -0.4375 -0.859375q-0.3125 -0.453125 -0.796875 -0.859375q-0.484375 -0.40625 -1.15625 -0.65625q-0.65625 -0.25 -1.484375 -0.25q-1.484375 0 -2.53125 0.8125q-1.03125 0.796875 -1.578125 2.140625q-0.546875 1.34375 -0.546875 2.984375q0 1.609375 0.546875 2.953125q0.546875 1.328125 1.578125 2.140625q1.046875 0.796875 2.53125 0.796875q0.84375 0 1.515625 -0.25q0.671875 -0.265625 1.171875 -0.671875q0.515625 -0.421875 0.828125 -0.890625q0.3125 -0.484375 0.421875 -0.890625l1.671875 0.515625q-0.21875 0.671875 -0.703125 1.34375q-0.46875 0.65625 -1.203125 1.21875q-0.734375 0.546875 -1.671875 0.875q-0.9375 0.328125 -2.03125 0.328125zm14.13739 -14.8125l0 1.53125l-6.921875 0l0 -1.53125l6.921875 0zm-4.765625 -3.46875l1.78125 0l0 14.578125q0 1.078125 0.46875 1.59375q0.484375 0.5 1.484375 0.40625q0.171875 0 0.4375 -0.046875q0.265625 -0.046875 0.5 -0.109375l0.375 1.53125q-0.296875 0.09375 -0.640625 0.140625q-0.34375 0.046875 -0.6875 0.0625q-1.75 0.125 -2.734375 -0.8125q-0.984375 -0.953125 -0.984375 -2.640625l0 -14.703125zm13.262512 18.328125q-1.90625 0 -3.359375 -0.953125q-1.4375 -0.953125 -2.265625 -2.65625q-0.8125 -1.703125 -0.8125 -3.90625q0 -2.234375 0.8125 -3.921875q0.828125 -1.703125 2.265625 -2.65625q1.453125 -0.96875 3.359375 -0.96875q1.875 0 3.328125 0.96875q1.453125 0.953125 2.265625 2.65625q0.828125 1.6875 0.828125 3.921875q0 2.203125 -0.8125 3.90625q-0.8125 1.703125 -2.265625 2.65625q-1.453125 0.953125 -3.34375 0.953125zm0 -1.59375q1.484375 0 2.53125 -0.8125q1.046875 -0.8125 1.578125 -2.140625q0.546875 -1.34375 0.546875 -2.96875q0 -1.625 -0.546875 -2.96875q-0.546875 -1.34375 -1.59375 -2.15625q-1.03125 -0.8125 -2.515625 -0.8125q-1.484375 0 -2.53125 0.8125q-1.03125 0.8125 -1.578125 2.15625q-0.546875 1.34375 -0.546875 2.96875q0 1.625 0.53125 2.96875q0.546875 1.328125 1.578125 2.140625q1.046875 0.8125 2.546875 0.8125zm10.113647 1.28125l0 -14.546875l1.71875 0l0 2.265625l0.140625 0q0.4375 -1.125 1.515625 -1.796875q1.078125 -0.671875 2.4375 -0.671875q0.21875 0 0.46875 0.015625q0.25 0 0.421875 0.015625l0 1.765625q-0.078125 -0.03125 -0.390625 -0.0625q-0.296875 -0.03125 -0.640625 -0.03125q-1.125 0 -2.015625 0.484375q-0.875 0.484375 -1.375 1.328125q-0.5 0.828125 -0.5 1.90625l0 9.328125l-1.78125 0z" fill-rule="nonzero"/><path fill="#000000" fill-opacity="0.0" d="m461.53806 392.8249l0 0c0 -20.766907 16.8349 -37.601807 37.601807 -37.601807l235.50504 0c9.972656 0 19.536804 3.961609 26.588501 11.013336c7.051697 7.051697 11.013306 16.615875 11.013306 26.58847l0 150.40271c0 20.766907 -16.8349 37.601807 -37.601807 37.601807l-235.50504 0c-20.766907 0 -37.601807 -16.8349 -37.601807 -37.601807z" fill-rule="evenodd"/><path stroke="#000000" stroke-width="1.0" stroke-linejoin="round" stroke-linecap="butt" d="m461.53806 392.8249l0 0c0 -20.766907 16.8349 -37.601807 37.601807 -37.601807l235.50504 0c9.972656 0 19.536804 3.961609 26.588501 11.013336c7.051697 7.051697 11.013306 16.615875 11.013306 26.58847l0 150.40271c0 20.766907 -16.8349 37.601807 -37.601807 37.601807l-235.50504 0c-20.766907 0 -37.601807 -16.8349 -37.601807 -37.601807z" fill-rule="evenodd"/><path fill="#000000" d="m594.7747 401.1019q-2.4375 0 -4.34375 -1.21875q-1.90625 -1.21875 -2.984375 -3.453125q-1.078125 -2.25 -1.078125 -5.28125q0 -3.046875 1.078125 -5.28125q1.078125 -2.234375 2.984375 -3.453125q1.90625 -1.234375 4.34375 -1.234375q1.546875 0 2.859375 0.484375q1.3125 0.484375 2.3125 1.359375q1.0 0.859375 1.640625 2.015625q0.65625 1.15625 0.890625 2.5l-1.859375 0q-0.203125 -1.0 -0.71875 -1.84375q-0.5 -0.84375 -1.265625 -1.46875q-0.765625 -0.625 -1.734375 -0.96875q-0.96875 -0.34375 -2.125 -0.34375q-1.8125 0 -3.328125 0.953125q-1.5 0.953125 -2.390625 2.78125q-0.890625 1.828125 -0.890625 4.5q0 2.671875 0.890625 4.515625q0.90625 1.828125 2.40625 2.765625q1.5 0.9375 3.3125 0.9375q1.15625 0 2.125 -0.34375q0.96875 -0.34375 1.734375 -0.96875q0.765625 -0.625 1.265625 -1.46875q0.515625 -0.859375 0.71875 -1.84375l1.859375 0q-0.234375 1.328125 -0.875 2.484375q-0.640625 1.15625 -1.640625 2.03125q-1.0 0.859375 -2.3125 1.359375q-1.3125 0.484375 -2.875 0.484375zm11.515869 -0.265625l0 -14.546875l1.71875 0l0 2.265625l0.140625 0q0.4375 -1.125 1.515625 -1.796875q1.078125 -0.671875 2.4375 -0.671875q0.21875 0 0.46875 0.015625q0.25 0 0.421875 0.015625l0 1.765625q-0.078125 -0.03125 -0.390625 -0.0625q-0.296875 -0.03125 -0.640625 -0.03125q-1.125 0 -2.015625 0.484375q-0.875 0.484375 -1.375 1.328125q-0.5 0.828125 -0.5 1.90625l0 9.328125l-1.78125 0zm9.74884 0l0 -14.546875l1.78125 0l0 14.546875l-1.78125 0zm0.90625 -17.25q-0.53125 0 -0.90625 -0.359375q-0.375 -0.359375 -0.375 -0.875q0 -0.515625 0.375 -0.875q0.375 -0.359375 0.90625 -0.359375q0.53125 0 0.90625 0.359375q0.390625 0.359375 0.390625 0.875q0 0.515625 -0.390625 0.875q-0.375 0.359375 -0.90625 0.359375zm10.237183 2.703125l0 1.53125l-6.921875 0l0 -1.53125l6.921875 0zm-4.765625 -3.46875l1.78125 0l0 14.578125q0 1.078125 0.46875 1.59375q0.484375 0.5 1.484375 0.40625q0.171875 0 0.4375 -0.046875q0.265625 -0.046875 0.5 -0.109375l0.375 1.53125q-0.296875 0.09375 -0.640625 0.140625q-0.34375 0.046875 -0.6875 0.0625q-1.75 0.125 -2.734375 -0.8125q-0.984375 -0.953125 -0.984375 -2.640625l0 -14.703125zm7.7963867 18.015625l0 -14.546875l1.78125 0l0 14.546875l-1.78125 0zm0.90625 -17.25q-0.53125 0 -0.90625 -0.359375q-0.375 -0.359375 -0.375 -0.875q0 -0.515625 0.375 -0.875q0.375 -0.359375 0.90625 -0.359375q0.53125 0 0.90625 0.359375q0.390625 0.359375 0.390625 0.875q0 0.515625 -0.390625 0.875q-0.375 0.359375 -0.90625 0.359375zm11.002747 17.515625q-1.90625 0 -3.359375 -0.9375q-1.4375 -0.953125 -2.265625 -2.640625q-0.8125 -1.703125 -0.8125 -3.890625q0 -2.25 0.8125 -3.9375q0.828125 -1.703125 2.265625 -2.65625q1.453125 -0.953125 3.359375 -0.953125q1.09375 0 2.015625 0.328125q0.9375 0.328125 1.640625 0.875q0.71875 0.53125 1.1875 1.1875q0.484375 0.65625 0.703125 1.328125l-1.671875 0.515625q-0.125 -0.40625 -0.4375 -0.859375q-0.3125 -0.453125 -0.796875 -0.859375q-0.484375 -0.40625 -1.15625 -0.65625q-0.65625 -0.25 -1.484375 -0.25q-1.484375 0 -2.53125 0.8125q-1.03125 0.796875 -1.578125 2.140625q-0.546875 1.34375 -0.546875 2.984375q0 1.609375 0.546875 2.953125q0.546875 1.328125 1.578125 2.140625q1.046875 0.796875 2.53125 0.796875q0.84375 0 1.515625 -0.25q0.671875 -0.265625 1.171875 -0.671875q0.515625 -0.421875 0.828125 -0.890625q0.3125 -0.484375 0.421875 -0.890625l1.671875 0.515625q-0.21875 0.671875 -0.703125 1.34375q-0.46875 0.65625 -1.203125 1.21875q-0.734375 0.546875 -1.671875 0.875q-0.9375 0.328125 -2.03125 0.328125z" fill-rule="nonzero"/><path fill="#d9d2e9" d="m267.68634 142.40445l0 0c0 -7.047928 5.713501 -12.761398 12.761414 -12.761398l51.04413 0l0 0c3.3845215 0 6.630432 1.3444977 9.023682 3.7377167c2.393219 2.3932343 3.737732 5.639145 3.737732 9.023682l0 352.7764c0 7.047943 -5.713501 12.761414 -12.761414 12.761414l-51.04413 0c-7.0479126 0 -12.761414 -5.7134705 -12.761414 -12.761414z" fill-rule="evenodd"/><path stroke="#000000" stroke-width="1.0" stroke-linejoin="round" stroke-linecap="butt" d="m267.68634 142.40445l0 0c0 -7.047928 5.713501 -12.761398 12.761414 -12.761398l51.04413 0l0 0c3.3845215 0 6.630432 1.3444977 9.023682 3.7377167c2.393219 2.3932343 3.737732 5.639145 3.737732 9.023682l0 352.7764c0 7.047943 -5.713501 12.761414 -12.761414 12.761414l-51.04413 0c-7.0479126 0 -12.761414 -5.7134705 -12.761414 -12.761414z" fill-rule="evenodd"/><path fill="#000000" fill-opacity="0.0" d="m212.56824 87.6273l186.80316 0l0 42.015755l-186.80316 0z" fill-rule="evenodd"/><path fill="#000000" d="m237.203 114.547295l-3.4375 0l0 -2.125l3.3125 0q1.40625 0 2.359375 -0.515625q0.953125 -0.515625 1.421875 -1.546875q0.484375 -1.046875 0.484375 -2.609375q0 -1.5625 -0.46875 -2.578125q-0.46875 -1.03125 -1.40625 -1.546875q-0.9375 -0.515625 -2.328125 -0.515625l-3.453125 0l0 -2.140625l3.59375 0q2.03125 0 3.484375 0.8125q1.453125 0.8125 2.234375 2.34375q0.78125 1.515625 0.78125 3.625q0 2.109375 -0.78125 3.640625q-0.78125 1.53125 -2.265625 2.34375q-1.46875 0.8125 -3.53125 0.8125zm-2.15625 -13.578125l0 13.578125l-2.453125 0l0 -13.578125l2.453125 0zm14.761078 13.78125q-1.53125 0 -2.640625 -0.640625q-1.109375 -0.640625 -1.703125 -1.8125q-0.59375 -1.1875 -0.59375 -2.78125q0 -1.578125 0.578125 -2.765625q0.59375 -1.1875 1.671875 -1.84375q1.078125 -0.671875 2.53125 -0.671875q0.9375 0 1.78125 0.3125q0.84375 0.296875 1.5 0.921875q0.65625 0.625 1.015625 1.59375q0.375 0.96875 0.375 2.3125l0 0.75l-8.34375 0l0 -1.625l7.15625 0l-1.125 0.484375q0 -0.875 -0.265625 -1.515625q-0.265625 -0.640625 -0.78125 -1.0q-0.515625 -0.359375 -1.296875 -0.359375q-0.765625 0 -1.3125 0.359375q-0.546875 0.359375 -0.828125 0.984375q-0.28125 0.609375 -0.28125 1.359375l0 1.125q0 0.921875 0.3125 1.59375q0.328125 0.65625 0.90625 1.0q0.59375 0.34375 1.375 0.34375q0.515625 0 0.9375 -0.140625q0.421875 -0.140625 0.71875 -0.4375q0.3125 -0.296875 0.484375 -0.734375l2.234375 0.265625q-0.21875 0.875 -0.8125 1.546875q-0.578125 0.65625 -1.5 1.015625q-0.90625 0.359375 -2.09375 0.359375zm8.2117 -6.15625l0 5.953125l-2.3906403 0l0 -10.1875l2.3437653 0l0 1.75l0.125 0q0.34375 -0.859375 1.078125 -1.359375q0.75 -0.515625 1.890625 -0.515625q1.0625 0 1.84375 0.453125q0.78125 0.4375 1.203125 1.296875q0.4375 0.859375 0.4375 2.078125l0 6.484375l-2.390625 0l0 -6.109375q0 -1.015625 -0.53125 -1.59375q-0.515625 -0.578125 -1.453125 -0.578125q-0.625 0 -1.125 0.28125q-0.484375 0.265625 -0.765625 0.78125q-0.265625 0.515625 -0.265625 1.265625zm16.344269 -1.53125l-2.1875 0.234375q-0.125 -0.5 -0.59375 -0.890625q-0.453125 -0.390625 -1.28125 -0.390625q-0.734375 0 -1.25 0.328125q-0.5 0.328125 -0.5 0.84375q0 0.4375 0.328125 0.734375q0.328125 0.28125 1.109375 0.453125l1.734375 0.375q1.4375 0.296875 2.140625 0.984375q0.71875 0.671875 0.71875 1.765625q0 0.953125 -0.5625 1.6875q-0.546875 0.734375 -1.53125 1.15625q-0.984375 0.40625 -2.25 0.40625q-1.875 0 -3.015625 -0.78125q-1.125 -0.796875 -1.359375 -2.203125l2.34375 -0.21875q0.15625 0.6875 0.671875 1.046875q0.53125 0.34375 1.359375 0.34375q0.84375 0 1.359375 -0.34375q0.53125 -0.359375 0.53125 -0.875q0 -0.859375 -1.375 -1.15625l-1.734375 -0.375q-1.46875 -0.3125 -2.171875 -1.03125q-0.703125 -0.71875 -0.703125 -1.828125q0 -0.9375 0.515625 -1.625q0.53125 -0.703125 1.453125 -1.078125q0.9375 -0.390625 2.15625 -0.390625q1.796875 0 2.8125 0.78125q1.03125 0.765625 1.28125 2.046875zm6.0064087 7.6875q-1.53125 0 -2.640625 -0.640625q-1.109375 -0.640625 -1.703125 -1.8125q-0.59375 -1.1875 -0.59375 -2.78125q0 -1.578125 0.578125 -2.765625q0.59375 -1.1875 1.671875 -1.84375q1.078125 -0.671875 2.53125 -0.671875q0.9375 0 1.78125 0.3125q0.84375 0.296875 1.5 0.921875q0.65625 0.625 1.015625 1.59375q0.375 0.96875 0.375 2.3125l0 0.75l-8.34375 0l0 -1.625l7.15625 0l-1.125 0.484375q0 -0.875 -0.265625 -1.515625q-0.265625 -0.640625 -0.78125 -1.0q-0.515625 -0.359375 -1.296875 -0.359375q-0.765625 0 -1.3125 0.359375q-0.546875 0.359375 -0.828125 0.984375q-0.28125 0.609375 -0.28125 1.359375l0 1.125q0 0.921875 0.3125 1.59375q0.328125 0.65625 0.90625 1.0q0.59375 0.34375 1.375 0.34375q0.515625 0 0.9375 -0.140625q0.421875 -0.140625 0.71875 -0.4375q0.3125 -0.296875 0.484375 -0.734375l2.234375 0.265625q-0.21875 0.875 -0.8125 1.546875q-0.578125 0.65625 -1.5 1.015625q-0.90625 0.359375 -2.09375 0.359375zm6.24292 -5.734375q0 -1.484375 0.296875 -3.109375q0.296875 -1.640625 0.828125 -3.140625q0.53125 -1.515625 1.21875 -2.625l2.25 0q-0.671875 1.421875 -1.15625 2.96875q-0.484375 1.53125 -0.75 3.046875q-0.25 1.5 -0.25 2.859375q0 1.1875 0.21875 2.40625q0.21875 1.203125 0.6875 2.59375q0.484375 1.375 1.25 3.078125l-2.25 0q-1.15625 -1.9375 -1.75 -3.984375q-0.59375 -2.046875 -0.59375 -4.09375zm11.105896 -8.046875l0 13.578125l-2.4375 0l0 -11.171875l-0.078125 0l-3.171875 2.03125l0 -2.265625l3.375 -2.171875l2.3125 0zm1.8345337 13.578125l0 -1.765625l4.71875 -4.625q0.671875 -0.6875 1.109375 -1.21875q0.453125 -0.53125 0.6875 -1.015625q0.234375 -0.5 0.234375 -1.0625q0 -0.640625 -0.296875 -1.109375q-0.296875 -0.46875 -0.796875 -0.703125q-0.5 -0.25 -1.15625 -0.25q-0.671875 0 -1.171875 0.28125q-0.5 0.265625 -0.78125 0.765625q-0.28125 0.5 -0.28125 1.1875l-2.328125 0q0 -1.28125 0.578125 -2.234375q0.59375 -0.953125 1.625 -1.46875q1.046875 -0.53125 2.390625 -0.53125q1.375 0 2.40625 0.515625q1.03125 0.5 1.59375 1.390625q0.578125 0.890625 0.578125 2.03125q0 0.75 -0.296875 1.484375q-0.28125 0.734375 -1.015625 1.640625q-0.734375 0.890625 -2.046875 2.15625l-2.34375 2.375l0 0.109375l5.90625 0l0 2.046875l-9.3125 0zm15.747833 0.1875q-1.484375 0 -2.625 -0.5q-1.125 -0.5 -1.78125 -1.359375q-0.640625 -0.875 -0.640625 -1.96875q0 -0.84375 0.375 -1.5625q0.375 -0.71875 1.015625 -1.203125q0.640625 -0.484375 1.453125 -0.609375l0 -0.09375q-1.046875 -0.234375 -1.703125 -1.0625q-0.640625 -0.84375 -0.640625 -1.953125q0 -1.046875 0.578125 -1.859375q0.59375 -0.828125 1.625 -1.296875q1.03125 -0.46875 2.34375 -0.46875q1.296875 0 2.328125 0.46875q1.03125 0.46875 1.625 1.296875q0.59375 0.8125 0.59375 1.859375q0 1.109375 -0.65625 1.953125q-0.65625 0.828125 -1.6875 1.0625l0 0.09375q0.796875 0.125 1.4375 0.609375q0.640625 0.484375 1.015625 1.203125q0.390625 0.71875 0.390625 1.5625q0 1.09375 -0.65625 1.96875q-0.640625 0.859375 -1.78125 1.359375q-1.140625 0.5 -2.609375 0.5zm0 -1.890625q0.765625 0 1.328125 -0.265625q0.5625 -0.265625 0.875 -0.734375q0.3125 -0.484375 0.3125 -1.109375q0 -0.640625 -0.328125 -1.140625q-0.328125 -0.5 -0.90625 -0.78125q-0.5625 -0.296875 -1.28125 -0.296875q-0.734375 0 -1.3125 0.296875q-0.5625 0.28125 -0.890625 0.78125q-0.3125 0.484375 -0.3125 1.140625q0 0.625 0.3125 1.109375q0.3125 0.46875 0.875 0.734375q0.5625 0.265625 1.328125 0.265625zm0 -6.1875q0.609375 0 1.09375 -0.25q0.484375 -0.25 0.765625 -0.703125q0.28125 -0.453125 0.28125 -1.03125q0 -0.59375 -0.28125 -1.03125q-0.265625 -0.4375 -0.75 -0.671875q-0.46875 -0.25 -1.109375 -0.25q-0.640625 0 -1.125 0.25q-0.484375 0.234375 -0.765625 0.671875q-0.265625 0.4375 -0.265625 1.03125q0 0.578125 0.265625 1.03125q0.28125 0.4375 0.765625 0.703125q0.5 0.25 1.125 0.25zm6.05484 11.375l0.8125 -5.5l2.453125 0l-1.59375 5.5l-1.671875 0zm9.273346 -3.484375l0 -13.578125l5.09375 0q1.5625 0 2.625 0.546875q1.0625 0.546875 1.609375 1.53125q0.546875 0.984375 0.546875 2.265625q0 1.3125 -0.5625 2.265625q-0.546875 0.953125 -1.625 1.484375q-1.0625 0.515625 -2.625 0.515625l-3.625 0l0 -2.03125l3.28125 0q0.921875 0 1.5 -0.25q0.59375 -0.265625 0.875 -0.765625q0.28125 -0.5 0.28125 -1.21875q0 -0.71875 -0.296875 -1.234375q-0.28125 -0.515625 -0.859375 -0.78125q-0.578125 -0.265625 -1.515625 -0.265625l-2.25 0l0 11.515625l-2.453125 0zm7.625 0l-3.296875 -6.15625l2.6875 0l3.359375 6.15625l-2.75 0zm8.076965 0.203125q-1.53125 0 -2.640625 -0.640625q-1.109375 -0.640625 -1.703125 -1.8125q-0.59375 -1.1875 -0.59375 -2.78125q0 -1.578125 0.578125 -2.765625q0.59375 -1.1875 1.671875 -1.84375q1.078125 -0.671875 2.53125 -0.671875q0.9375 0 1.78125 0.3125q0.84375 0.296875 1.5 0.921875q0.65625 0.625 1.015625 1.59375q0.375 0.96875 0.375 2.3125l0 0.75l-8.34375 0l0 -1.625l7.15625 0l-1.125 0.484375q0 -0.875 -0.265625 -1.515625q-0.265625 -0.640625 -0.78125 -1.0q-0.515625 -0.359375 -1.296875 -0.359375q-0.765625 0 -1.3125 0.359375q-0.546875 0.359375 -0.828125 0.984375q-0.28125 0.609375 -0.28125 1.359375l0 1.125q0 0.921875 0.3125 1.59375q0.328125 0.65625 0.90625 1.0q0.59375 0.34375 1.375 0.34375q0.515625 0 0.9375 -0.140625q0.421875 -0.140625 0.71875 -0.4375q0.3125 -0.296875 0.484375 -0.734375l2.234375 0.265625q-0.21875 0.875 -0.8125 1.546875q-0.578125 0.65625 -1.5 1.015625q-0.90625 0.359375 -2.09375 0.359375zm5.914795 -0.203125l0 -13.578125l2.453125 0l0 11.515625l5.984375 0l0 2.0625l-8.4375 0zm18.418976 -13.578125l2.453125 0l0 8.875q0 1.453125 -0.6875 2.5625q-0.6875 1.109375 -1.921875 1.734375q-1.234375 0.609375 -2.890625 0.609375q-1.65625 0 -2.90625 -0.609375q-1.234375 -0.625 -1.921875 -1.734375q-0.6875 -1.109375 -0.6875 -2.5625l0 -8.875l2.453125 0l0 8.671875q0 0.859375 0.375 1.515625q0.375 0.65625 1.0625 1.03125q0.6875 0.375 1.625 0.375q0.921875 0 1.609375 -0.375q0.6875 -0.375 1.0625 -1.03125q0.375 -0.65625 0.375 -1.515625l0 -8.671875zm3.7622986 15.28125q0.765625 -1.703125 1.234375 -3.078125q0.484375 -1.390625 0.703125 -2.59375q0.21875 -1.21875 0.21875 -2.40625q0 -1.359375 -0.265625 -2.859375q-0.25 -1.515625 -0.734375 -3.046875q-0.46875 -1.546875 -1.15625 -2.96875l2.234375 0q0.703125 1.109375 1.21875 2.625q0.53125 1.5 0.828125 3.140625q0.3125 1.625 0.3125 3.109375q0 2.046875 -0.609375 4.09375q-0.59375 2.046875 -1.75 3.984375l-2.234375 0z" fill-rule="nonzero"/><path fill="#ffffff" d="m284.56418 169.82872l0 0c0 -11.819763 9.581787 -21.401566 21.40155 -21.401566l0 0c5.676056 0 11.119629 2.2548065 15.133209 6.2683716c4.0135803 4.0135803 6.2683716 9.457153 6.2683716 15.133194l0 0c0 11.819763 -9.581818 21.40158 -21.40158 21.40158l0 0c-11.819763 0 -21.40155 -9.581818 -21.40155 -21.40158z" fill-rule="evenodd"/><path stroke="#000000" stroke-width="1.0" stroke-linejoin="round" stroke-linecap="butt" d="m284.56418 169.82872l0 0c0 -11.819763 9.581787 -21.401566 21.40155 -21.401566l0 0c5.676056 0 11.119629 2.2548065 15.133209 6.2683716c4.0135803 4.0135803 6.2683716 9.457153 6.2683716 15.133194l0 0c0 11.819763 -9.581818 21.40158 -21.40158 21.40158l0 0c-11.819763 0 -21.40155 -9.581818 -21.40155 -21.40158z" fill-rule="evenodd"/><path fill="#ffffff" d="m284.56418 221.23282l0 0c0 -11.819763 9.581787 -21.40158 21.40155 -21.40158l0 0c5.676056 0 11.119629 2.2548065 15.133209 6.2683716c4.0135803 4.0135803 6.2683716 9.457153 6.2683716 15.133209l0 0c0 11.819763 -9.581818 21.401566 -21.40158 21.401566l0 0c-11.819763 0 -21.40155 -9.581802 -21.40155 -21.401566z" fill-rule="evenodd"/><path stroke="#000000" stroke-width="1.0" stroke-linejoin="round" stroke-linecap="butt" d="m284.56418 221.23282l0 0c0 -11.819763 9.581787 -21.40158 21.40155 -21.40158l0 0c5.676056 0 11.119629 2.2548065 15.133209 6.2683716c4.0135803 4.0135803 6.2683716 9.457153 6.2683716 15.133209l0 0c0 11.819763 -9.581818 21.401566 -21.40158 21.401566l0 0c-11.819763 0 -21.40155 -9.581802 -21.40155 -21.401566z" fill-rule="evenodd"/><path fill="#ffffff" d="m284.56418 272.6369l0 0c0 -11.819763 9.581787 -21.40158 21.40155 -21.40158l0 0c5.676056 0 11.119629 2.2548065 15.133209 6.2683716c4.0135803 4.0135803 6.2683716 9.457153 6.2683716 15.133209l0 0c0 11.819763 -9.581818 21.40158 -21.40158 21.40158l0 0c-11.819763 0 -21.40155 -9.581818 -21.40155 -21.40158z" fill-rule="evenodd"/><path stroke="#000000" stroke-width="1.0" stroke-linejoin="round" stroke-linecap="butt" d="m284.56418 272.6369l0 0c0 -11.819763 9.581787 -21.40158 21.40155 -21.40158l0 0c5.676056 0 11.119629 2.2548065 15.133209 6.2683716c4.0135803 4.0135803 6.2683716 9.457153 6.2683716 15.133209l0 0c0 11.819763 -9.581818 21.40158 -21.40158 21.40158l0 0c-11.819763 0 -21.40155 -9.581818 -21.40155 -21.40158z" fill-rule="evenodd"/><path fill="#ffffff" d="m284.56418 361.02432l0 0c0 -11.819763 9.581787 -21.40158 21.40155 -21.40158l0 0c5.676056 0 11.119629 2.2547913 15.133209 6.2683716c4.0135803 4.0135803 6.2683716 9.457153 6.2683716 15.133209l0 0c0 11.819763 -9.581818 21.40158 -21.40158 21.40158l0 0c-11.819763 0 -21.40155 -9.581818 -21.40155 -21.40158z" fill-rule="evenodd"/><path stroke="#000000" stroke-width="1.0" stroke-linejoin="round" stroke-linecap="butt" d="m284.56418 361.02432l0 0c0 -11.819763 9.581787 -21.40158 21.40155 -21.40158l0 0c5.676056 0 11.119629 2.2547913 15.133209 6.2683716c4.0135803 4.0135803 6.2683716 9.457153 6.2683716 15.133209l0 0c0 11.819763 -9.581818 21.40158 -21.40158 21.40158l0 0c-11.819763 0 -21.40155 -9.581818 -21.40155 -21.40158z" fill-rule="evenodd"/><path fill="#ffffff" d="m284.56418 412.4284l0 0c0 -11.819763 9.581787 -21.40158 21.40155 -21.40158l0 0c5.676056 0 11.119629 2.2548218 15.133209 6.2683716c4.0135803 4.0135803 6.2683716 9.457153 6.2683716 15.133209l0 0c0 11.819763 -9.581818 21.40158 -21.40158 21.40158l0 0c-11.819763 0 -21.40155 -9.581818 -21.40155 -21.40158z" fill-rule="evenodd"/><path stroke="#000000" stroke-width="1.0" stroke-linejoin="round" stroke-linecap="butt" d="m284.56418 412.4284l0 0c0 -11.819763 9.581787 -21.40158 21.40155 -21.40158l0 0c5.676056 0 11.119629 2.2548218 15.133209 6.2683716c4.0135803 4.0135803 6.2683716 9.457153 6.2683716 15.133209l0 0c0 11.819763 -9.581818 21.40158 -21.40158 21.40158l0 0c-11.819763 0 -21.40155 -9.581818 -21.40155 -21.40158z" fill-rule="evenodd"/><path fill="#ffffff" d="m284.56418 463.8325l0 0c0 -11.819763 9.581787 -21.40158 21.40155 -21.40158l0 0c5.676056 0 11.119629 2.2548218 15.133209 6.2683716c4.0135803 4.0135803 6.2683716 9.457153 6.2683716 15.133209l0 0c0 11.819763 -9.581818 21.40158 -21.40158 21.40158l0 0c-11.819763 0 -21.40155 -9.581818 -21.40155 -21.40158z" fill-rule="evenodd"/><path stroke="#000000" stroke-width="1.0" stroke-linejoin="round" stroke-linecap="butt" d="m284.56418 463.8325l0 0c0 -11.819763 9.581787 -21.40158 21.40155 -21.40158l0 0c5.676056 0 11.119629 2.2548218 15.133209 6.2683716c4.0135803 4.0135803 6.2683716 9.457153 6.2683716 15.133209l0 0c0 11.819763 -9.581818 21.40158 -21.40158 21.40158l0 0c-11.819763 0 -21.40155 -9.581818 -21.40155 -21.40158z" fill-rule="evenodd"/><path fill="#000000" fill-opacity="0.0" d="m333.10904 295.42905l0 42.80313l-59.149597 0l0 -42.80313z" fill-rule="evenodd"/><path fill="#000000" d="m306.18906 306.60092l1.875 0l0 1.875l-1.875 0l0 -1.875zm0 6.234375l1.875 0l0 1.859375l-1.875 0l0 -1.859375zm0 6.203125l1.875 0l0 1.875l-1.875 0l0 -1.875z" fill-rule="nonzero"/><path fill="#d9d2e9" d="m81.4331 187.20764l0 0c0 -8.222092 6.6653366 -14.887436 14.887436 -14.887436l59.547966 0l0 0c3.9483948 0 7.735077 1.5684967 10.527008 4.360428c2.7919312 2.7919464 4.360428 6.5786133 4.360428 10.527008l0 263.17c0 8.222107 -6.665329 14.887451 -14.887436 14.887451l-59.547966 0c-8.222099 0 -14.887436 -6.665344 -14.887436 -14.887451z" fill-rule="evenodd"/><path stroke="#000000" stroke-width="1.0" stroke-linejoin="round" stroke-linecap="butt" d="m81.4331 187.20764l0 0c0 -8.222092 6.6653366 -14.887436 14.887436 -14.887436l59.547966 0l0 0c3.9483948 0 7.735077 1.5684967 10.527008 4.360428c2.7919312 2.7919464 4.360428 6.5786133 4.360428 10.527008l0 263.17c0 8.222107 -6.665329 14.887451 -14.887436 14.887451l-59.547966 0c-8.222099 0 -14.887436 -6.665344 -14.887436 -14.887451z" fill-rule="evenodd"/><path fill="#ffffff" d="m98.33171 212.65984l0 0c0 -15.333511 12.430267 -27.763779 27.763779 -27.763779l0 0c7.3634186 0 14.425232 2.9250946 19.631958 8.131821c5.206711 5.206711 8.131821 12.268539 8.131821 19.631958l0 0c0 15.333511 -12.430267 27.763779 -27.763779 27.763779l0 0c-15.333511 0 -27.763779 -12.430267 -27.763779 -27.763779z" fill-rule="evenodd"/><path stroke="#000000" stroke-width="1.0" stroke-linejoin="round" stroke-linecap="butt" d="m98.33171 212.65984l0 0c0 -15.333511 12.430267 -27.763779 27.763779 -27.763779l0 0c7.3634186 0 14.425232 2.9250946 19.631958 8.131821c5.206711 5.206711 8.131821 12.268539 8.131821 19.631958l0 0c0 15.333511 -12.430267 27.763779 -27.763779 27.763779l0 0c-15.333511 0 -27.763779 -12.430267 -27.763779 -27.763779z" fill-rule="evenodd"/><path fill="#000000" d="m131.24677 213.00983q0.609375 0 0.984375 0.359375q0.390625 0.359375 0.390625 0.953125q0 1.109375 -1.140625 1.109375q-0.609375 0 -0.875 -0.359375q-0.265625 -0.359375 -0.3125 -0.71875q-0.046875 -0.359375 -0.125 -0.359375q-0.28125 0 -1.046875 1.171875q-0.765625 1.15625 -1.1406326 1.96875l0 0.25q0 0.640625 -0.34375 2.25q-0.34375 1.609375 -0.34375 1.796875q0 0.53125 0.453125 0.53125q0.37500763 0 0.7968826 -0.234375q0.4375 -0.234375 0.859375 -0.640625q0.421875 -0.40625 0.890625 -0.9375q0.46875 -0.53125 0.890625 -1.09375q0.421875 -0.5625 0.875 -1.109375l0.359375 0.203125l-0.1875 0.25q-1.578125 2.09375 -2.640625 3.078125q-1.046875 0.96875 -2.1562576 0.96875q-2.0 0 -2.625 -3.5q-1.890625 3.5 -3.40625 3.5q-0.609375 0 -1.046875 -0.390625q-0.4375 -0.40625 -0.4375 -1.0q0 -1.203125 1.25 -1.203125q0.53125 0 0.8125 0.3125q0.296875 0.3125 0.421875 0.625q0.140625 0.296875 0.28125 0.296875q0.5 0 2.078125 -2.9375q0.078125 -0.984375 0.375 -2.578125q0.296875 -1.609375 0.296875 -1.734375q0 -0.265625 -0.296875 -0.265625q-1.015625 0 -4.5625 4.75l-0.34375 -0.21875q0.984375 -1.3125 1.46875 -1.890625q0.484375 -0.59375 1.296875 -1.515625q0.828125 -0.921875 1.484375 -1.296875q0.65625 -0.390625 1.234375 -0.390625q1.734375 0 2.21875 3.171875q1.7656326 -3.171875 3.3125076 -3.171875z" fill-rule="nonzero"/><path fill="#ffffff" d="m99.41307 282.704l0 0c0 -15.333496 12.430267 -27.763779 27.763786 -27.763779l0 0c7.363411 0 14.42524 2.9250946 19.63195 8.131821c5.206726 5.206726 8.131821 12.268555 8.131821 19.631958l0 0c0 15.333527 -12.430267 27.763794 -27.763771 27.763794l0 0c-15.333519 0 -27.763786 -12.430267 -27.763786 -27.763794z" fill-rule="evenodd"/><path stroke="#000000" stroke-width="1.0" stroke-linejoin="round" stroke-linecap="butt" d="m99.41307 282.704l0 0c0 -15.333496 12.430267 -27.763779 27.763786 -27.763779l0 0c7.363411 0 14.42524 2.9250946 19.63195 8.131821c5.206726 5.206726 8.131821 12.268555 8.131821 19.631958l0 0c0 15.333527 -12.430267 27.763794 -27.763771 27.763794l0 0c-15.333519 0 -27.763786 -12.430267 -27.763786 -27.763794z" fill-rule="evenodd"/><path fill="#000000" d="m130.96782 289.74152q0.6875 0 1.203125 -0.40625q0.53125 -0.421875 1.25 -1.34375l0.34375 0.203125q-0.890625 1.078125 -1.453125 1.515625q-0.546875 0.4375 -1.34375 0.4375q-0.359375 0 -0.8125 -0.140625q-2.453125 2.484375 -4.28125 2.484375q-1.15625 0 -1.828125 -0.6875q-0.65625 -0.703125 -0.65625 -1.90625q0 -1.140625 0.734375 -2.53125q0.734375 -1.40625 1.46875 -2.421875q0.734375 -1.015625 0.734375 -1.25q0 -0.078125 -0.21875 -0.078125q-1.140625 0 -4.6875 4.75l-0.375 -0.21875l1.734375 -2.265625q2.34375 -2.828125 3.75 -2.828125q1.546875 0 1.546875 2.0q0 1.015625 -0.6875 2.515625q-0.6875 1.484375 -1.390625 2.65625q-0.6875 1.171875 -0.6875 1.40625q0 0.4375 0.671875 0.4375q1.484375 0 3.828125 -2.265625q-0.921875 -0.625 -0.921875 -1.953125q0 -1.75 1.109375 -3.265625q1.125 -1.53125 2.0625 -1.53125q0.984375 0 0.984375 1.25q0 1.203125 -0.59375 2.375q-0.578125 1.171875 -1.96875 3.015625q0.3125 0.046875 0.484375 0.046875zm0.875 -4.5q-0.859375 0 -1.671875 1.0q-0.8125 1.0 -0.8125 1.90625q0 0.828125 0.703125 1.359375q2.234375 -2.6875 2.234375 -3.8125q0 -0.453125 -0.453125 -0.453125z" fill-rule="nonzero"/><path fill="#ffffff" d="m98.33171 352.7482l0 0c0 -15.333527 12.430267 -27.763794 27.763779 -27.763794l0 0c7.3634186 0 14.425232 2.9251099 19.631958 8.131836c5.206711 5.206726 8.131821 12.268555 8.131821 19.631958l0 0c0 15.333496 -12.430267 27.763763 -27.763779 27.763763l0 0c-15.333511 0 -27.763779 -12.430267 -27.763779 -27.763763z" fill-rule="evenodd"/><path stroke="#000000" stroke-width="1.0" stroke-linejoin="round" stroke-linecap="butt" d="m98.33171 352.7482l0 0c0 -15.333527 12.430267 -27.763794 27.763779 -27.763794l0 0c7.3634186 0 14.425232 2.9251099 19.631958 8.131836c5.206711 5.206726 8.131821 12.268555 8.131821 19.631958l0 0c0 15.333496 -12.430267 27.763763 -27.763779 27.763763l0 0c-15.333511 0 -27.763779 -12.430267 -27.763779 -27.763763z" fill-rule="evenodd"/><path fill="#000000" d="m123.75725 362.64508q-1.625 0 -2.734375 -1.453125q-1.09375 -1.453125 -1.09375 -3.53125q0 -1.875 0.546875 -4.0625q0.5625 -2.203125 1.578125 -4.296875q1.015625 -2.09375 2.71875 -3.46875q1.703125 -1.390625 3.734375 -1.390625q2.140625 0 3.0625 1.5q0.9375 1.484375 0.9375 3.75q0 1.828125 -0.59375 4.0q-0.578125 2.171875 -1.640625 4.21875q-1.046875 2.03125 -2.765625 3.390625q-1.71875 1.34375 -3.75 1.34375zm5.953125 -9.84375q0.5625 -2.28125 0.5625 -4.578125q0 -0.875 -0.09375 -1.46875q-0.09375 -0.609375 -0.546875 -1.15625q-0.453125 -0.546875 -1.28125 -0.546875q-3.3125 0 -5.25 7.75l6.609375 0zm-0.15625 0.640625l-6.625 0q-0.765625 3.046875 -0.765625 5.421875q0 3.171875 1.734375 3.171875q3.546875 0 5.65625 -8.59375z" fill-rule="nonzero"/><path fill="#ffffff" d="m98.33171 422.7924l0 0c0 -15.333527 12.430267 -27.763794 27.763779 -27.763794l0 0c7.3634186 0 14.425232 2.9251099 19.631958 8.131836c5.206711 5.2066956 8.131821 12.268524 8.131821 19.631958l0 0c0 15.333496 -12.430267 27.763763 -27.763779 27.763763l0 0c-15.333511 0 -27.763779 -12.430267 -27.763779 -27.763763z" fill-rule="evenodd"/><path stroke="#000000" stroke-width="1.0" stroke-linejoin="round" stroke-linecap="butt" d="m98.33171 422.7924l0 0c0 -15.333527 12.430267 -27.763794 27.763779 -27.763794l0 0c7.3634186 0 14.425232 2.9251099 19.631958 8.131836c5.206711 5.2066956 8.131821 12.268524 8.131821 19.631958l0 0c0 15.333496 -12.430267 27.763763 -27.763779 27.763763l0 0c-15.333511 0 -27.763779 -12.430267 -27.763779 -27.763763z" fill-rule="evenodd"/><path fill="#000000" d="m127.35913 432.658q-2.5625 0 -2.5625 -2.75q0 -0.234375 0.0625 -0.765625l-0.078125 0q-0.59375 1.578125 -1.640625 2.546875q-1.03125 0.96875 -2.578125 0.96875q-1.734375 0 -2.578125 -1.28125q-0.828125 -1.296875 -0.828125 -3.109375q0 -3.046875 2.046875 -5.5625q2.046875 -2.515625 5.046875 -2.59375l-0.171875 0.625q-0.828125 0.09375 -1.484375 0.484375q-0.640625 0.375 -1.046875 0.828125q-0.390625 0.453125 -0.75 1.25q-0.34375 0.78125 -0.515625 1.328125q-0.171875 0.546875 -0.390625 1.453125q-0.578125 2.28125 -0.578125 3.515625q0 2.296875 1.734375 2.296875q1.09375 0 1.90625 -0.796875q0.8125 -0.8125 1.1875 -2.0625q0.390625 -1.25 0.5625 -2.359375q0.1875 -1.125 0.1875 -2.171875q0 -0.953125 0.390625 -1.65625q0.40625 -0.71875 1.3125 -0.71875q0.921875 0 0.921875 0.90625q0 0.53125 -1.0 2.890625q-1.0 2.359375 -1.0 3.796875q0 2.171875 1.734375 2.171875q1.046875 0 1.953125 -1.03125q0.90625 -1.03125 1.4375 -2.484375q0.53125 -1.46875 0.828125 -2.890625q0.3125 -1.4375 0.3125 -2.390625q0 -2.171875 -2.015625 -2.359375l0.15625 -0.625q1.921875 0.015625 2.953125 1.1875q1.046875 1.15625 1.046875 3.09375q0 1.703125 -0.84375 3.609375q-0.84375 1.90625 -2.40625 3.28125q-1.546875 1.375 -3.3125 1.375z" fill-rule="nonzero"/><path fill="#000000" fill-opacity="0.0" d="m63.82546 130.30446l124.53543 0l0 42.015747l-124.53543 0z" fill-rule="evenodd"/><path fill="#000000" d="m107.97761 143.64633l0 13.578125l-2.453125 0l0 -13.578125l2.453125 0zm4.2709656 7.625l0 5.953125l-2.390625 0l0 -10.1875l2.34375 0l0 1.75l0.125 0q0.34375 -0.859375 1.078125 -1.359375q0.75 -0.515625 1.890625 -0.515625q1.0625 0 1.84375 0.453125q0.78125 0.4375 1.203125 1.296875q0.4375 0.859375 0.4375 2.078125l0 6.484375l-2.390625 0l0 -6.109375q0 -1.015625 -0.53125 -1.59375q-0.515625 -0.578125 -1.453125 -0.578125q-0.625 0 -1.125 0.28125q-0.484375 0.265625 -0.765625 0.78125q-0.265625 0.515625 -0.265625 1.265625zm8.313034 9.765625l0 -14.0l2.34375 0l0 1.6875l0.140625 0q0.1875 -0.359375 0.515625 -0.78125q0.34375 -0.421875 0.921875 -0.71875q0.578125 -0.3125 1.484375 -0.3125q1.171875 0 2.1093674 0.609375q0.953125 0.59375 1.515625 1.765625q0.5625 1.15625 0.5625 2.859375q0 1.6875 -0.546875 2.859375q-0.546875 1.171875 -1.5 1.796875q-0.9531174 0.609375 -2.1562424 0.609375q-0.859375 0 -1.4375 -0.296875q-0.578125 -0.296875 -0.9375 -0.703125q-0.34375 -0.421875 -0.53125 -0.796875l-0.09375 0l0 5.421875l-2.390625 0zm4.734375 -5.59375q0.796875 0 1.328125 -0.421875q0.53125 -0.4375 0.796875 -1.1875q0.28125 -0.75 0.28125 -1.6875q0 -0.953125 -0.28125 -1.6875q-0.265625 -0.734375 -0.796875 -1.15625q-0.515625 -0.421875 -1.328125 -0.421875q-0.765625 0 -1.296875 0.40625q-0.53125 0.390625 -0.8125 1.125q-0.28125 0.734375 -0.28125 1.734375q0 0.984375 0.28125 1.734375q0.28125 0.734375 0.8125 1.15625q0.53125 0.40625 1.296875 0.40625zm12.681389 -2.484375l0 -5.921875l2.390625 0l0 10.1875l-2.328125 0l0 -1.8125l-0.109375 0q-0.34375 0.859375 -1.125 1.40625q-0.78125 0.546875 -1.9375 0.53125q-1.0 0 -1.765625 -0.4375q-0.75 -0.4375 -1.1875 -1.296875q-0.421875 -0.875 -0.421875 -2.09375l0 -6.484375l2.390625 0l0 6.125q0 0.953125 0.53125 1.53125q0.53125 0.578125 1.390625 0.5625q0.53125 0 1.03125 -0.25q0.5 -0.265625 0.8125 -0.765625q0.328125 -0.515625 0.328125 -1.28125zm9.227127 -5.921875l0 1.859375l-5.828125 0l0 -1.859375l5.828125 0zm-4.40625 -2.421875l2.390625 0l0 9.546875q0 0.609375 0.265625 0.890625q0.265625 0.28125 0.84375 0.28125q0.15625 0 0.34375 -0.015625q0.1875 -0.03125 0.34375 -0.078125l0.421875 1.890625q-0.390625 0.109375 -0.78125 0.171875q-0.390625 0.0625 -0.78125 0.0625q-1.421875 0 -2.234375 -0.75q-0.8125 -0.75 -0.8125 -2.0625l0 -9.9375z" fill-rule="nonzero"/><path fill="#c9daf8" d="m536.5446 186.18925l0 0c0 -7.485718 6.0683594 -13.554077 13.554077 -13.554077l54.21466 0l0 0c3.5947876 0 7.0422974 1.428009 9.5842285 3.9698944c2.54187 2.5418854 3.9698486 5.9894104 3.9698486 9.584183l0 112.10445c0 7.4856873 -6.0683594 13.554077 -13.554077 13.554077l-54.21466 0c-7.485718 0 -13.554077 -6.06839 -13.554077 -13.554077z" fill-rule="evenodd"/><path stroke="#000000" stroke-width="1.0" stroke-linejoin="round" stroke-linecap="butt" d="m536.5446 186.18925l0 0c0 -7.485718 6.0683594 -13.554077 13.554077 -13.554077l54.21466 0l0 0c3.5947876 0 7.0422974 1.428009 9.5842285 3.9698944c2.54187 2.5418854 3.9698486 5.9894104 3.9698486 9.584183l0 112.10445c0 7.4856873 -6.0683594 13.554077 -13.554077 13.554077l-54.21466 0c-7.485718 0 -13.554077 -6.06839 -13.554077 -13.554077z" fill-rule="evenodd"/><path fill="#ffffff" d="m554.4818 214.94725l0 0c0 -12.550339 10.174072 -22.724411 22.724426 -22.724411l0 0c6.0269165 0 11.806946 2.3941803 16.068604 6.655838c4.2616577 4.2616425 6.6558228 10.041687 6.6558228 16.068573l0 0c0 12.550354 -10.174072 22.724411 -22.724426 22.724411l0 0c-12.550354 0 -22.724426 -10.174057 -22.724426 -22.724411z" fill-rule="evenodd"/><path stroke="#000000" stroke-width="1.0" stroke-linejoin="round" stroke-linecap="butt" d="m554.4818 214.94725l0 0c0 -12.550339 10.174072 -22.724411 22.724426 -22.724411l0 0c6.0269165 0 11.806946 2.3941803 16.068604 6.655838c4.2616577 4.2616425 6.6558228 10.041687 6.6558228 16.068573l0 0c0 12.550354 -10.174072 22.724411 -22.724426 22.724411l0 0c-12.550354 0 -22.724426 -10.174057 -22.724426 -22.724411z" fill-rule="evenodd"/><path fill="#ffffff" d="m554.4818 269.53796l0 0c0 -12.550354 10.174072 -22.724411 22.724426 -22.724411l0 0c6.0269165 0 11.806946 2.3941803 16.068604 6.6558228c4.2616577 4.261673 6.6558228 10.041702 6.6558228 16.068588l0 0c0 12.550354 -10.174072 22.724426 -22.724426 22.724426l0 0c-12.550354 0 -22.724426 -10.174072 -22.724426 -22.724426z" fill-rule="evenodd"/><path stroke="#000000" stroke-width="1.0" stroke-linejoin="round" stroke-linecap="butt" d="m554.4818 269.53796l0 0c0 -12.550354 10.174072 -22.724411 22.724426 -22.724411l0 0c6.0269165 0 11.806946 2.3941803 16.068604 6.6558228c4.2616577 4.261673 6.6558228 10.041702 6.6558228 16.068588l0 0c0 12.550354 -10.174072 22.724426 -22.724426 22.724426l0 0c-12.550354 0 -22.724426 -10.174072 -22.724426 -22.724426z" fill-rule="evenodd"/><path fill="#000000" fill-opacity="0.0" d="m617.86743 193.93964l154.39374 0l0 42.015747l-154.39374 0z" fill-rule="evenodd"/><path fill="#000000" d="m627.6643 220.85963l2.25 -13.578125l4.640625 0q1.578125 0 2.5 0.578125q0.9375 0.5625 1.28125 1.546875q0.34375 0.96875 0.140625 2.171875q-0.1875 1.21875 -0.859375 2.21875q-0.65625 0.984375 -1.78125 1.578125q-1.109375 0.578125 -2.703125 0.578125l-3.28125 0l0.25 -1.53125l3.203125 0q1.09375 0 1.8125 -0.375q0.71875 -0.375 1.109375 -1.015625q0.390625 -0.65625 0.53125 -1.4375q0.125 -0.796875 -0.078125 -1.421875q-0.1875 -0.625 -0.78125 -0.984375q-0.59375 -0.375 -1.6875 -0.375l-2.828125 0l-2.0 12.046875l-1.71875 0zm13.321472 -6.390625q0.25 -1.484375 0.8125 -3.109375q0.5625 -1.625 1.34375 -3.125q0.796875 -1.515625 1.65625 -2.640625l1.59375 0q-0.953125 1.453125 -1.71875 3.0q-0.765625 1.546875 -1.296875 3.046875q-0.515625 1.5 -0.734375 2.8125q-0.1875 1.203125 -0.15625 2.453125q0.03125 1.234375 0.296875 2.625q0.28125 1.375 0.8125 3.015625l-1.609375 0q-0.84375 -2.015625 -1.09375 -4.0625q-0.234375 -2.0625 0.09375 -4.015625z" fill-rule="nonzero"/><path fill="#000000" d="m647.02496 220.85963l0 -10.1875l1.59375 0l0.015625 2.28125l-0.125 0q0.203125 -0.828125 0.65625 -1.359375q0.453125 -0.546875 1.046875 -0.8125q0.609375 -0.28125 1.265625 -0.28125q1.109375 0 1.796875 0.6875q0.6875 0.671875 0.890625 1.78125l-0.21875 0q0.1875 -0.765625 0.671875 -1.3125q0.484375 -0.5625 1.171875 -0.859375q0.6875 -0.296875 1.5 -0.296875q0.875 0 1.59375 0.390625q0.734375 0.375 1.171875 1.15625q0.4375 0.765625 0.4375 1.9375l0 6.875l-1.640625 0l0 -6.828125q0 -1.09375 -0.625 -1.5625q-0.609375 -0.484375 -1.4375 -0.484375q-0.6875 0 -1.1875 0.296875q-0.484375 0.28125 -0.765625 0.78125q-0.265625 0.5 -0.265625 1.140625l0 6.65625l-1.640625 0l0 -6.984375q0 -0.84375 -0.5625 -1.359375q-0.5625 -0.53125 -1.421875 -0.53125q-0.59375 0 -1.125 0.28125q-0.515625 0.28125 -0.84375 0.828125q-0.3125 0.546875 -0.3125 1.359375l0 6.40625l-1.640625 0zm20.483093 0.21875q-1.375 0 -2.421875 -0.65625q-1.046875 -0.65625 -1.625 -1.84375q-0.578125 -1.1875 -0.578125 -2.75q0 -1.59375 0.578125 -2.78125q0.578125 -1.1875 1.625 -1.84375q1.046875 -0.65625 2.421875 -0.65625q1.40625 0 2.453125 0.65625q1.046875 0.65625 1.625 1.84375q0.578125 1.1875 0.578125 2.78125q0 1.5625 -0.578125 2.75q-0.578125 1.1875 -1.625 1.84375q-1.046875 0.65625 -2.453125 0.65625zm0 -1.46875q1.03125 0 1.6875 -0.53125q0.671875 -0.53125 0.984375 -1.390625q0.328125 -0.859375 0.328125 -1.859375q0 -1.015625 -0.328125 -1.875q-0.3125 -0.875 -0.984375 -1.40625q-0.65625 -0.53125 -1.6875 -0.53125q-1.015625 0 -1.671875 0.53125q-0.65625 0.53125 -0.984375 1.40625q-0.3125 0.859375 -0.3125 1.875q0 1.0 0.3125 1.859375q0.328125 0.859375 0.984375 1.390625q0.65625 0.53125 1.671875 0.53125zm9.618713 1.25l-3.890625 -10.1875l1.796875 0l2.171875 6.046875q0.34375 0.9375 0.578125 1.875q0.25 0.921875 0.515625 1.796875l-0.59375 0q0.25 -0.875 0.484375 -1.796875q0.25 -0.9375 0.59375 -1.875l2.171875 -6.046875l1.796875 0l-3.890625 10.1875l-1.734375 0zm11.464233 0.21875q-1.46875 0 -2.546875 -0.65625q-1.0625 -0.65625 -1.640625 -1.828125q-0.578125 -1.171875 -0.578125 -2.75q0 -1.5625 0.5625 -2.75q0.5625 -1.203125 1.59375 -1.875q1.03125 -0.671875 2.421875 -0.671875q0.8125 0 1.59375 0.265625q0.796875 0.265625 1.4375 0.875q0.640625 0.59375 1.015625 1.578125q0.390625 0.96875 0.390625 2.375l0 0.6875l-7.90625 0l0 -1.390625l7.015625 0l-0.765625 0.515625q0 -1.0 -0.3125 -1.78125q-0.3125 -0.78125 -0.9375 -1.21875q-0.609375 -0.453125 -1.53125 -0.453125q-0.921875 0 -1.578125 0.453125q-0.65625 0.453125 -1.0 1.1875q-0.34375 0.71875 -0.34375 1.546875l0 0.921875q0 1.125 0.390625 1.921875q0.390625 0.78125 1.09375 1.1875q0.703125 0.40625 1.640625 0.40625q0.59375 0 1.078125 -0.171875q0.5 -0.171875 0.859375 -0.515625q0.359375 -0.359375 0.546875 -0.890625l1.578125 0.4375q-0.234375 0.765625 -0.796875 1.359375q-0.5625 0.578125 -1.40625 0.90625q-0.828125 0.328125 -1.875 0.328125zm13.483154 -13.796875l0 13.578125l-1.640625 0l0 -13.578125l1.640625 0zm7.1589355 13.796875q-1.46875 0 -2.546875 -0.65625q-1.0625 -0.65625 -1.640625 -1.828125q-0.578125 -1.171875 -0.578125 -2.75q0 -1.5625 0.5625 -2.75q0.5625 -1.203125 1.59375 -1.875q1.03125 -0.671875 2.421875 -0.671875q0.8125 0 1.59375 0.265625q0.796875 0.265625 1.4375 0.875q0.640625 0.59375 1.015625 1.578125q0.390625 0.96875 0.390625 2.375l0 0.6875l-7.90625 0l0 -1.390625l7.015625 0l-0.765625 0.515625q0 -1.0 -0.3125 -1.78125q-0.3125 -0.78125 -0.9375 -1.21875q-0.609375 -0.453125 -1.53125 -0.453125q-0.921875 0 -1.578125 0.453125q-0.65625 0.453125 -1.0 1.1875q-0.34375 0.71875 -0.34375 1.546875l0 0.921875q0 1.125 0.390625 1.921875q0.390625 0.78125 1.09375 1.1875q0.703125 0.40625 1.640625 0.40625q0.59375 0 1.078125 -0.171875q0.5 -0.171875 0.859375 -0.515625q0.359375 -0.359375 0.546875 -0.890625l1.578125 0.4375q-0.234375 0.765625 -0.796875 1.359375q-0.5625 0.578125 -1.40625 0.90625q-0.828125 0.328125 -1.875 0.328125zm11.329895 -10.40625l0 1.40625l-5.984375 0l0 -1.40625l5.984375 0zm-3.984375 10.1875l0 -11.546875q0 -0.875 0.40625 -1.46875q0.421875 -0.59375 1.078125 -0.890625q0.671875 -0.296875 1.40625 -0.296875q0.59375 0 0.96875 0.09375q0.390625 0.09375 0.5625 0.171875l-0.453125 1.40625q-0.125 -0.046875 -0.328125 -0.09375q-0.203125 -0.0625 -0.546875 -0.0625q-0.765625 0 -1.109375 0.390625q-0.34375 0.375 -0.34375 1.125l0 11.171875l-1.640625 0zm9.532593 -10.1875l0 1.40625l-5.265625 0l0 -1.40625l5.265625 0zm-3.734375 -2.421875l1.640625 0l0 9.96875q0 0.6875 0.265625 1.0q0.28125 0.3125 0.9375 0.3125q0.140625 0 0.375 -0.03125q0.25 -0.046875 0.453125 -0.078125l0.34375 1.390625q-0.265625 0.078125 -0.59375 0.125q-0.3125 0.046875 -0.625 0.046875q-1.328125 0 -2.0625 -0.6875q-0.734375 -0.703125 -0.734375 -1.953125l0 -10.09375z" fill-rule="nonzero"/><path fill="#000000" d="m726.37085 223.40651q1.046875 -1.59375 1.78125 -2.96875q0.734375 -1.375 1.1875 -2.625q0.453125 -1.265625 0.640625 -2.484375q0.21875 -1.328125 0.1875 -2.828125q-0.015625 -1.5 -0.265625 -3.03125q-0.25 -1.546875 -0.734375 -3.0l1.609375 0q0.5 1.125 0.765625 2.640625q0.28125 1.5 0.3125 3.125q0.03125 1.625 -0.21875 3.109375q-0.3125 1.96875 -1.25 4.03125q-0.921875 2.046875 -2.40625 4.03125l-1.609375 0z" fill-rule="nonzero"/><path fill="#000000" fill-opacity="0.0" d="m617.86743 248.53018l154.39374 0l0 42.015747l-154.39374 0z" fill-rule="evenodd"/><path fill="#000000" d="m627.6643 275.4502l2.25 -13.578125l4.640625 0q1.578125 0 2.5 0.578125q0.9375 0.5625 1.28125 1.546875q0.34375 0.96875 0.140625 2.171875q-0.1875 1.21875 -0.859375 2.21875q-0.65625 0.984375 -1.78125 1.578125q-1.109375 0.578125 -2.703125 0.578125l-3.28125 0l0.25 -1.53125l3.203125 0q1.09375 0 1.8125 -0.375q0.71875 -0.375 1.109375 -1.015625q0.390625 -0.65625 0.53125 -1.4375q0.125 -0.796875 -0.078125 -1.421875q-0.1875 -0.625 -0.78125 -0.984375q-0.59375 -0.375 -1.6875 -0.375l-2.828125 0l-2.0 12.046875l-1.71875 0zm13.321472 -6.390625q0.25 -1.484375 0.8125 -3.109375q0.5625 -1.625 1.34375 -3.125q0.796875 -1.515625 1.65625 -2.640625l1.59375 0q-0.953125 1.453125 -1.71875 3.0q-0.765625 1.546875 -1.296875 3.046875q-0.515625 1.5 -0.734375 2.8125q-0.1875 1.203125 -0.15625 2.453125q0.03125 1.234375 0.296875 2.625q0.28125 1.375 0.8125 3.015625l-1.609375 0q-0.84375 -2.015625 -1.09375 -4.0625q-0.234375 -2.0625 0.09375 -4.015625z" fill-rule="nonzero"/><path fill="#000000" d="m647.02496 275.4502l0 -10.1875l1.59375 0l0.015625 2.28125l-0.125 0q0.203125 -0.828125 0.65625 -1.359375q0.453125 -0.546875 1.046875 -0.8125q0.609375 -0.28125 1.265625 -0.28125q1.109375 0 1.796875 0.6875q0.6875 0.671875 0.890625 1.78125l-0.21875 0q0.1875 -0.765625 0.671875 -1.3125q0.484375 -0.5625 1.171875 -0.859375q0.6875 -0.296875 1.5 -0.296875q0.875 0 1.59375 0.390625q0.734375 0.375 1.171875 1.15625q0.4375 0.765625 0.4375 1.9375l0 6.875l-1.640625 0l0 -6.828125q0 -1.09375 -0.625 -1.5625q-0.609375 -0.484375 -1.4375 -0.484375q-0.6875 0 -1.1875 0.296875q-0.484375 0.28125 -0.765625 0.78125q-0.265625 0.5 -0.265625 1.140625l0 6.65625l-1.640625 0l0 -6.984375q0 -0.84375 -0.5625 -1.359375q-0.5625 -0.53125 -1.421875 -0.53125q-0.59375 0 -1.125 0.28125q-0.515625 0.28125 -0.84375 0.828125q-0.3125 0.546875 -0.3125 1.359375l0 6.40625l-1.640625 0zm20.483093 0.21875q-1.375 0 -2.421875 -0.65625q-1.046875 -0.65625 -1.625 -1.84375q-0.578125 -1.1875 -0.578125 -2.75q0 -1.59375 0.578125 -2.78125q0.578125 -1.1875 1.625 -1.84375q1.046875 -0.65625 2.421875 -0.65625q1.40625 0 2.453125 0.65625q1.046875 0.65625 1.625 1.84375q0.578125 1.1875 0.578125 2.78125q0 1.5625 -0.578125 2.75q-0.578125 1.1875 -1.625 1.84375q-1.046875 0.65625 -2.453125 0.65625zm0 -1.46875q1.03125 0 1.6875 -0.53125q0.671875 -0.53125 0.984375 -1.390625q0.328125 -0.859375 0.328125 -1.859375q0 -1.015625 -0.328125 -1.875q-0.3125 -0.875 -0.984375 -1.40625q-0.65625 -0.53125 -1.6875 -0.53125q-1.015625 0 -1.671875 0.53125q-0.65625 0.53125 -0.984375 1.40625q-0.3125 0.859375 -0.3125 1.875q0 1.0 0.3125 1.859375q0.328125 0.859375 0.984375 1.390625q0.65625 0.53125 1.671875 0.53125zm9.618713 1.25l-3.890625 -10.1875l1.796875 0l2.171875 6.046875q0.34375 0.9375 0.578125 1.875q0.25 0.921875 0.515625 1.796875l-0.59375 0q0.25 -0.875 0.484375 -1.796875q0.25 -0.9375 0.59375 -1.875l2.171875 -6.046875l1.796875 0l-3.890625 10.1875l-1.734375 0zm11.464233 0.21875q-1.46875 0 -2.546875 -0.65625q-1.0625 -0.65625 -1.640625 -1.828125q-0.578125 -1.171875 -0.578125 -2.75q0 -1.5625 0.5625 -2.75q0.5625 -1.203125 1.59375 -1.875q1.03125 -0.671875 2.421875 -0.671875q0.8125 0 1.59375 0.265625q0.796875 0.265625 1.4375 0.875q0.640625 0.59375 1.015625 1.578125q0.390625 0.96875 0.390625 2.375l0 0.6875l-7.90625 0l0 -1.390625l7.015625 0l-0.765625 0.515625q0 -1.0 -0.3125 -1.78125q-0.3125 -0.78125 -0.9375 -1.21875q-0.609375 -0.453125 -1.53125 -0.453125q-0.921875 0 -1.578125 0.453125q-0.65625 0.453125 -1.0 1.1875q-0.34375 0.71875 -0.34375 1.546875l0 0.921875q0 1.125 0.390625 1.921875q0.390625 0.78125 1.09375 1.1875q0.703125 0.40625 1.640625 0.40625q0.59375 0 1.078125 -0.171875q0.5 -0.171875 0.859375 -0.515625q0.359375 -0.359375 0.546875 -0.890625l1.578125 0.4375q-0.234375 0.765625 -0.796875 1.359375q-0.5625 0.578125 -1.40625 0.90625q-0.828125 0.328125 -1.875 0.328125zm11.842529 -0.21875l0 -10.1875l1.59375 0l0 1.5625l0.109375 0q0.28125 -0.765625 1.0 -1.234375q0.71875 -0.46875 1.640625 -0.46875q0.171875 0 0.421875 0.015625q0.25 0 0.40625 0.015625l0 1.640625q-0.078125 -0.015625 -0.375 -0.046875q-0.28125 -0.046875 -0.609375 -0.046875q-0.734375 0 -1.3125 0.3125q-0.578125 0.296875 -0.90625 0.84375q-0.328125 0.53125 -0.328125 1.21875l0 6.375l-1.640625 0zm7.2057495 0l0 -10.1875l1.640625 0l0 10.1875l-1.640625 0zm0.828125 -11.84375q-0.46875 0 -0.8125 -0.3125q-0.328125 -0.328125 -0.328125 -0.78125q0 -0.453125 0.328125 -0.765625q0.34375 -0.3125 0.8125 -0.3125q0.46875 0 0.796875 0.3125q0.34375 0.3125 0.34375 0.765625q0 0.453125 -0.34375 0.78125q-0.328125 0.3125 -0.796875 0.3125zm7.8151855 15.875q-1.125 0 -1.953125 -0.296875q-0.828125 -0.28125 -1.375 -0.765625q-0.546875 -0.46875 -0.859375 -1.015625l1.328125 -0.859375q0.21875 0.296875 0.546875 0.640625q0.328125 0.359375 0.875 0.609375q0.546875 0.25 1.4375 0.25q1.21875 0 2.0 -0.578125q0.796875 -0.578125 0.796875 -1.84375l0 -2.046875l-0.15625 0q-0.171875 0.296875 -0.484375 0.703125q-0.3125 0.390625 -0.90625 0.703125q-0.578125 0.3125 -1.5625 0.3125q-1.21875 0 -2.203125 -0.578125q-0.96875 -0.59375 -1.53125 -1.703125q-0.5625 -1.109375 -0.5625 -2.703125q0 -1.578125 0.546875 -2.734375q0.5625 -1.15625 1.53125 -1.796875q0.984375 -0.640625 2.25 -0.640625q0.984375 0 1.5625 0.328125q0.59375 0.3125 0.90625 0.734375q0.328125 0.421875 0.5 0.703125l0.15625 0l0 -1.640625l1.59375 0l0 10.453125q0 1.3125 -0.59375 2.140625q-0.59375 0.84375 -1.59375 1.234375q-1.0 0.390625 -2.25 0.390625zm-0.046875 -5.65625q0.9375 0 1.5625 -0.421875q0.640625 -0.421875 0.96875 -1.21875q0.328125 -0.796875 0.328125 -1.90625q0 -1.09375 -0.328125 -1.90625q-0.3125 -0.828125 -0.953125 -1.296875q-0.640625 -0.46875 -1.578125 -0.46875q-0.953125 0 -1.609375 0.5q-0.640625 0.484375 -0.96875 1.328125q-0.328125 0.828125 -0.328125 1.84375q0 1.046875 0.328125 1.859375q0.328125 0.796875 0.96875 1.25q0.65625 0.4375 1.609375 0.4375zm9.004028 -4.484375l0 6.109375l-1.640625 0l0 -13.578125l1.640625 0l0 5.859375l-0.28125 0q0.46875 -1.40625 1.328125 -2.0q0.859375 -0.59375 2.015625 -0.59375q1.03125 0 1.8125 0.421875q0.78125 0.421875 1.203125 1.28125q0.4375 0.84375 0.4375 2.140625l0 6.46875l-1.65625 0l0 -6.328125q0 -1.171875 -0.609375 -1.84375q-0.609375 -0.671875 -1.6875 -0.671875q-0.71875 0 -1.3125 0.328125q-0.578125 0.3125 -0.921875 0.921875q-0.328125 0.609375 -0.328125 1.484375zm13.406616 -4.078125l0 1.40625l-5.265625 0l0 -1.40625l5.265625 0zm-3.734375 -2.421875l1.640625 0l0 9.96875q0 0.6875 0.265625 1.0q0.28125 0.3125 0.9375 0.3125q0.140625 0 0.375 -0.03125q0.25 -0.046875 0.453125 -0.078125l0.34375 1.390625q-0.265625 0.078125 -0.59375 0.125q-0.3125 0.046875 -0.625 0.046875q-1.328125 0 -2.0625 -0.6875q-0.734375 -0.703125 -0.734375 -1.953125l0 -10.09375z" fill-rule="nonzero"/><path fill="#000000" d="m738.90594 277.99707q1.046875 -1.59375 1.78125 -2.96875q0.734375 -1.375 1.1875 -2.625q0.453125 -1.265625 0.640625 -2.484375q0.21875 -1.328125 0.1875 -2.828125q-0.015625 -1.5 -0.265625 -3.03125q-0.25 -1.546875 -0.734375 -3.0l1.609375 0q0.5 1.125 0.765625 2.640625q0.28125 1.5 0.3125 3.125q0.03125 1.625 -0.21875 3.109375q-0.3125 1.96875 -1.25 4.03125q-0.921875 2.046875 -2.40625 4.03125l-1.609375 0z" fill-rule="nonzero"/><path fill="#000000" fill-opacity="0.0" d="m473.0118 130.61942l208.37796 0l0 42.015762l-208.37796 0z" fill-rule="evenodd"/><path fill="#000000" d="m496.21356 157.53941l-3.4375 0l0 -2.125l3.3125 0q1.40625 0 2.359375 -0.515625q0.953125 -0.515625 1.421875 -1.546875q0.484375 -1.046875 0.484375 -2.609375q0 -1.5625 -0.46875 -2.578125q-0.46875 -1.03125 -1.40625 -1.546875q-0.9375 -0.515625 -2.328125 -0.515625l-3.453125 0l0 -2.140625l3.59375 0q2.03125 0 3.484375 0.8125q1.453125 0.8125 2.234375 2.34375q0.78125 1.515625 0.78125 3.625q0 2.109375 -0.78125 3.640625q-0.78125 1.53125 -2.265625 2.34375q-1.46875 0.8125 -3.53125 0.8125zm-2.15625 -13.578125l0 13.578125l-2.453125 0l0 -13.578125l2.453125 0zm14.761078 13.78125q-1.53125 0 -2.640625 -0.640625q-1.109375 -0.640625 -1.703125 -1.8125q-0.59375 -1.1875 -0.59375 -2.78125q0 -1.578125 0.578125 -2.765625q0.59375 -1.1875 1.671875 -1.84375q1.078125 -0.671875 2.53125 -0.671875q0.9375 0 1.78125 0.3125q0.84375 0.296875 1.5 0.921875q0.6562195 0.625 1.0155945 1.59375q0.375 0.96875 0.375 2.3125l0 0.75l-8.3437195 0l0 -1.625l7.1562195 0l-1.1249695 0.484375q0 -0.875 -0.265625 -1.515625q-0.265625 -0.640625 -0.78125 -1.0q-0.515625 -0.359375 -1.296875 -0.359375q-0.765625 0 -1.3125 0.359375q-0.546875 0.359375 -0.828125 0.984375q-0.28125 0.609375 -0.28125 1.359375l0 1.125q0 0.921875 0.3125 1.59375q0.328125 0.65625 0.90625 1.0q0.59375 0.34375 1.375 0.34375q0.515625 0 0.9375 -0.140625q0.421875 -0.140625 0.71875 -0.4375q0.3125 -0.296875 0.484375 -0.734375l2.2343445 0.265625q-0.21875 0.875 -0.8125 1.546875q-0.5780945 0.65625 -1.4999695 1.015625q-0.90625 0.359375 -2.09375 0.359375zm8.2117 -6.15625l0 5.953125l-2.390625 0l0 -10.1875l2.34375 0l0 1.75l0.125 0q0.34375 -0.859375 1.078125 -1.359375q0.75 -0.515625 1.890625 -0.515625q1.0625 0 1.84375 0.453125q0.78125 0.4375 1.203125 1.296875q0.4375 0.859375 0.4375 2.078125l0 6.484375l-2.390625 0l0 -6.109375q0 -1.015625 -0.53125 -1.59375q-0.515625 -0.578125 -1.453125 -0.578125q-0.625 0 -1.125 0.28125q-0.484375 0.265625 -0.765625 0.78125q-0.265625 0.515625 -0.265625 1.265625zm16.344238 -1.53125l-2.1875 0.234375q-0.125 -0.5 -0.59375 -0.890625q-0.453125 -0.390625 -1.28125 -0.390625q-0.734375 0 -1.25 0.328125q-0.5 0.328125 -0.5 0.84375q0 0.4375 0.328125 0.734375q0.328125 0.28125 1.109375 0.453125l1.734375 0.375q1.4375 0.296875 2.140625 0.984375q0.71875 0.671875 0.71875 1.765625q0 0.953125 -0.5625 1.6875q-0.546875 0.734375 -1.53125 1.15625q-0.984375 0.40625 -2.25 0.40625q-1.875 0 -3.015625 -0.78125q-1.125 -0.796875 -1.359375 -2.203125l2.34375 -0.21875q0.15625 0.6875 0.671875 1.046875q0.53125 0.34375 1.359375 0.34375q0.84375 0 1.359375 -0.34375q0.53125 -0.359375 0.53125 -0.875q0 -0.859375 -1.375 -1.15625l-1.734375 -0.375q-1.46875 -0.3125 -2.171875 -1.03125q-0.703125 -0.71875 -0.703125 -1.828125q0 -0.9375 0.515625 -1.625q0.53125 -0.703125 1.453125 -1.078125q0.9375 -0.390625 2.15625 -0.390625q1.796875 0 2.8125 0.78125q1.03125 0.765625 1.28125 2.046875zm6.0064087 7.6875q-1.53125 0 -2.640625 -0.640625q-1.109375 -0.640625 -1.703125 -1.8125q-0.59375 -1.1875 -0.59375 -2.78125q0 -1.578125 0.578125 -2.765625q0.59375 -1.1875 1.671875 -1.84375q1.078125 -0.671875 2.53125 -0.671875q0.9375 0 1.78125 0.3125q0.84375 0.296875 1.5 0.921875q0.65625 0.625 1.015625 1.59375q0.375 0.96875 0.375 2.3125l0 0.75l-8.34375 0l0 -1.625l7.15625 0l-1.125 0.484375q0 -0.875 -0.265625 -1.515625q-0.265625 -0.640625 -0.78125 -1.0q-0.515625 -0.359375 -1.296875 -0.359375q-0.765625 0 -1.3125 0.359375q-0.546875 0.359375 -0.828125 0.984375q-0.28125 0.609375 -0.28125 1.359375l0 1.125q0 0.921875 0.3125 1.59375q0.328125 0.65625 0.90625 1.0q0.59375 0.34375 1.375 0.34375q0.515625 0 0.9375 -0.140625q0.421875 -0.140625 0.71875 -0.4375q0.3125 -0.296875 0.484375 -0.734375l2.234375 0.265625q-0.21875 0.875 -0.8125 1.546875q-0.578125 0.65625 -1.5 1.015625q-0.90625 0.359375 -2.09375 0.359375zm6.24292 -5.734375q0 -1.484375 0.296875 -3.109375q0.296875 -1.640625 0.828125 -3.140625q0.53125 -1.515625 1.21875 -2.625l2.25 0q-0.671875 1.421875 -1.15625 2.96875q-0.484375 1.53125 -0.75 3.046875q-0.25 1.5 -0.25 2.859375q0 1.1875 0.21875 2.40625q0.21875 1.203125 0.6875 2.59375q0.484375 1.375 1.25 3.078125l-2.25 0q-1.15625 -1.9375 -1.75 -3.984375q-0.59375 -2.046875 -0.59375 -4.09375zm11.105896 -8.046875l0 13.578125l-2.4375 0l0 -11.171875l-0.078125 0l-3.171875 2.03125l0 -2.265625l3.375 -2.171875l2.3125 0zm1.8345337 13.578125l0 -1.765625l4.71875 -4.625q0.671875 -0.6875 1.109375 -1.21875q0.453125 -0.53125 0.6875 -1.015625q0.234375 -0.5 0.234375 -1.0625q0 -0.640625 -0.296875 -1.109375q-0.296875 -0.46875 -0.796875 -0.703125q-0.5 -0.25 -1.15625 -0.25q-0.671875 0 -1.171875 0.28125q-0.5 0.265625 -0.78125 0.765625q-0.28125 0.5 -0.28125 1.1875l-2.328125 0q0 -1.28125 0.578125 -2.234375q0.59375 -0.953125 1.625 -1.46875q1.046875 -0.53125 2.390625 -0.53125q1.375 0 2.40625 0.515625q1.03125 0.5 1.59375 1.390625q0.578125 0.890625 0.578125 2.03125q0 0.75 -0.296875 1.484375q-0.28125 0.734375 -1.015625 1.640625q-0.734375 0.890625 -2.046875 2.15625l-2.34375 2.375l0 0.109375l5.90625 0l0 2.046875l-9.3125 0zm15.747864 0.1875q-1.484375 0 -2.625 -0.5q-1.125 -0.5 -1.78125 -1.359375q-0.640625 -0.875 -0.640625 -1.96875q0 -0.84375 0.375 -1.5625q0.375 -0.71875 1.015625 -1.203125q0.640625 -0.484375 1.453125 -0.609375l0 -0.09375q-1.046875 -0.234375 -1.703125 -1.0625q-0.640625 -0.84375 -0.640625 -1.953125q0 -1.046875 0.578125 -1.859375q0.59375 -0.828125 1.625 -1.296875q1.03125 -0.46875 2.34375 -0.46875q1.296875 0 2.328125 0.46875q1.03125 0.46875 1.625 1.296875q0.59375 0.8125 0.59375 1.859375q0 1.109375 -0.65625 1.953125q-0.65625 0.828125 -1.6875 1.0625l0 0.09375q0.796875 0.125 1.4375 0.609375q0.640625 0.484375 1.015625 1.203125q0.390625 0.71875 0.390625 1.5625q0 1.09375 -0.65625 1.96875q-0.640625 0.859375 -1.78125 1.359375q-1.140625 0.5 -2.609375 0.5zm0 -1.890625q0.765625 0 1.328125 -0.265625q0.5625 -0.265625 0.875 -0.734375q0.3125 -0.484375 0.3125 -1.109375q0 -0.640625 -0.328125 -1.140625q-0.328125 -0.5 -0.90625 -0.78125q-0.5625 -0.296875 -1.28125 -0.296875q-0.734375 0 -1.3125 0.296875q-0.5625 0.28125 -0.890625 0.78125q-0.3125 0.484375 -0.3125 1.140625q0 0.625 0.3125 1.109375q0.3125 0.46875 0.875 0.734375q0.5625 0.265625 1.328125 0.265625zm0 -6.1875q0.609375 0 1.09375 -0.25q0.484375 -0.25 0.765625 -0.703125q0.28125 -0.453125 0.28125 -1.03125q0 -0.59375 -0.28125 -1.03125q-0.265625 -0.4375 -0.75 -0.671875q-0.46875 -0.25 -1.109375 -0.25q-0.640625 0 -1.125 0.25q-0.484375 0.234375 -0.765625 0.671875q-0.265625 0.4375 -0.265625 1.03125q0 0.578125 0.265625 1.03125q0.28125 0.4375 0.765625 0.703125q0.5 0.25 1.125 0.25zm6.0548096 11.375l0.8125 -5.5l2.453125 0l-1.59375 5.5l-1.671875 0zm17.210876 -10.96875l-2.1875 0.234375q-0.125 -0.5 -0.59375 -0.890625q-0.453125 -0.390625 -1.28125 -0.390625q-0.734375 0 -1.25 0.328125q-0.5 0.328125 -0.5 0.84375q0 0.4375 0.328125 0.734375q0.328125 0.28125 1.109375 0.453125l1.734375 0.375q1.4375 0.296875 2.140625 0.984375q0.71875 0.671875 0.71875 1.765625q0 0.953125 -0.5625 1.6875q-0.546875 0.734375 -1.53125 1.15625q-0.984375 0.40625 -2.25 0.40625q-1.875 0 -3.015625 -0.78125q-1.125 -0.796875 -1.359375 -2.203125l2.34375 -0.21875q0.15625 0.6875 0.671875 1.046875q0.53125 0.34375 1.359375 0.34375q0.84375 0 1.359375 -0.34375q0.53125 -0.359375 0.53125 -0.875q0 -0.859375 -1.375 -1.15625l-1.734375 -0.375q-1.46875 -0.3125 -2.171875 -1.03125q-0.703125 -0.71875 -0.703125 -1.828125q0 -0.9375 0.515625 -1.625q0.53125 -0.703125 1.453125 -1.078125q0.9375 -0.390625 2.15625 -0.390625q1.796875 0 2.8125 0.78125q1.03125 0.765625 1.28125 2.046875zm5.9282837 7.6875q-1.484375 0 -2.578125 -0.65625q-1.09375 -0.65625 -1.6875 -1.84375q-0.59375 -1.1875 -0.59375 -2.75q0 -1.578125 0.59375 -2.765625q0.59375 -1.1875 1.6875 -1.84375q1.09375 -0.65625 2.578125 -0.65625q1.5 0 2.59375 0.65625q1.09375 0.65625 1.6875 1.84375q0.609375 1.1875 0.609375 2.765625q0 1.5625 -0.609375 2.75q-0.59375 1.1875 -1.6875 1.84375q-1.09375 0.65625 -2.59375 0.65625zm0 -1.9375q0.84375 0 1.375 -0.4375q0.53125 -0.4375 0.796875 -1.1875q0.28125 -0.765625 0.28125 -1.6875q0 -0.9375 -0.28125 -1.6875q-0.265625 -0.765625 -0.796875 -1.203125q-0.53125 -0.4375 -1.375 -0.4375q-0.796875 0 -1.34375 0.4375q-0.546875 0.4375 -0.828125 1.203125q-0.265625 0.75 -0.265625 1.6875q0 0.921875 0.265625 1.6875q0.28125 0.75 0.828125 1.1875q0.546875 0.4375 1.34375 0.4375zm11.389893 -8.453125l0 1.859375l-6.015625 0l0 -1.859375l6.015625 0zm-4.515625 10.1875l0 -11.140625q0 -1.03125 0.421875 -1.703125q0.4375 -0.6875 1.15625 -1.015625q0.734375 -0.34375 1.609375 -0.34375q0.625 0 1.109375 0.09375q0.484375 0.09375 0.71875 0.1875l-0.5 1.859375q-0.140625 -0.0625 -0.375 -0.109375q-0.21875 -0.046875 -0.515625 -0.046875q-0.65625 0 -0.953125 0.328125q-0.28125 0.328125 -0.28125 0.921875l0 10.96875l-2.390625 0zm10.773804 -10.1875l0 1.859375l-5.828125 0l0 -1.859375l5.828125 0zm-4.40625 -2.421875l2.390625 0l0 9.546875q0 0.609375 0.265625 0.890625q0.265625 0.28125 0.84375 0.28125q0.15625 0 0.34375 -0.015625q0.1875 -0.03125 0.34375 -0.078125l0.421875 1.890625q-0.390625 0.109375 -0.78125 0.171875q-0.390625 0.0625 -0.78125 0.0625q-1.421875 0 -2.234375 -0.75q-0.8125 -0.75 -0.8125 -2.0625l0 -9.9375zm5.7385864 12.609375l0 -10.1875l2.28125 0l0 1.75l0.125 0q0.3125 -0.875 1.046875 -1.375q0.75 -0.5 1.765625 -0.5q1.03125 0 1.734375 0.5q0.71875 0.5 1.0 1.375l0.109375 0q0.34375 -0.859375 1.140625 -1.359375q0.8125 -0.515625 1.921875 -0.515625q1.40625 0 2.28125 0.890625q0.890625 0.890625 0.890625 2.59375l0 6.828125l-2.390625 0l0 -6.46875q0 -0.9375 -0.515625 -1.375q-0.5 -0.453125 -1.234375 -0.453125q-0.859375 0 -1.34375 0.546875q-0.484375 0.546875 -0.484375 1.390625l0 6.359375l-2.375 0l0 -6.5625q0 -0.78125 -0.46875 -1.25q-0.453125 -0.484375 -1.21875 -0.484375q-0.515625 0 -0.953125 0.265625q-0.421875 0.265625 -0.671875 0.75q-0.25 0.46875 -0.25 1.09375l0 6.1875l-2.390625 0zm19.000122 0.203125q-0.96875 0 -1.75 -0.34375q-0.765625 -0.34375 -1.21875 -1.03125q-0.4375 -0.6875 -0.4375 -1.6875q0 -0.859375 0.3125 -1.421875q0.3125 -0.5625 0.859375 -0.890625q0.5625 -0.34375 1.25 -0.515625q0.703125 -0.1875 1.4375 -0.265625q0.90625 -0.09375 1.453125 -0.15625q0.5625 -0.078125 0.8125 -0.234375q0.25 -0.171875 0.25 -0.53125l0 -0.046875q0 -0.734375 -0.4375 -1.140625q-0.4375 -0.40625 -1.28125 -0.40625q-0.875 0 -1.390625 0.390625q-0.515625 0.375 -0.703125 0.890625l-2.234375 -0.3125q0.265625 -0.9375 0.875 -1.5625q0.609375 -0.625 1.484375 -0.9375q0.890625 -0.3125 1.953125 -0.3125q0.734375 0 1.453125 0.171875q0.734375 0.171875 1.34375 0.578125q0.609375 0.390625 0.96875 1.0625q0.375 0.671875 0.375 1.6875l0 6.8125l-2.3125 0l0 -1.40625l-0.0625 0q-0.21875 0.421875 -0.625 0.796875q-0.390625 0.359375 -0.984375 0.59375q-0.578125 0.21875 -1.390625 0.21875zm0.609375 -1.765625q0.734375 0 1.265625 -0.28125q0.53125 -0.28125 0.8125 -0.765625q0.296875 -0.484375 0.296875 -1.046875l0 -1.1875q-0.125 0.09375 -0.390625 0.171875q-0.25 0.078125 -0.59375 0.140625q-0.34375 0.0625 -0.671875 0.109375q-0.3125 0.046875 -0.546875 0.0625q-0.546875 0.078125 -0.96875 0.25q-0.421875 0.171875 -0.671875 0.46875q-0.234375 0.28125 -0.234375 0.75q0 0.65625 0.484375 1.0q0.484375 0.328125 1.21875 0.328125zm8.497009 -8.625l2.046875 3.78125l2.09375 -3.78125l2.53125 0l-3.0625 5.109375l3.125 5.078125l-2.53125 0l-2.15625 -3.65625l-2.125 3.65625l-2.53125 0l3.078125 -5.078125l-3.015625 -5.109375l2.546875 0zm7.286194 12.734375q0.765625 -1.703125 1.234375 -3.078125q0.484375 -1.390625 0.703125 -2.59375q0.21875 -1.21875 0.21875 -2.40625q0 -1.359375 -0.265625 -2.859375q-0.25 -1.515625 -0.734375 -3.046875q-0.46875 -1.546875 -1.15625 -2.96875l2.234375 0q0.703125 1.109375 1.21875 2.625q0.53125 1.5 0.828125 3.140625q0.3125 1.625 0.3125 3.109375q0 2.046875 -0.609375 4.09375q-0.59375 2.046875 -1.75 3.984375l-2.234375 0z" fill-rule="nonzero"/><path fill="#f4cccc" d="m536.5446 477.07114l0 0c0 -7.485718 6.0683594 -13.554077 13.554077 -13.554077l54.21466 0l0 0c3.5947876 0 7.0422974 1.428009 9.5842285 3.9699097c2.54187 2.54187 3.9698486 5.9894104 3.9698486 9.5841675l0 59.34854c0 7.485718 -6.0683594 13.554077 -13.554077 13.554077l-54.21466 0c-7.485718 0 -13.554077 -6.0683594 -13.554077 -13.554077z" fill-rule="evenodd"/><path stroke="#000000" stroke-width="1.0" stroke-linejoin="round" stroke-linecap="butt" d="m536.5446 477.07114l0 0c0 -7.485718 6.0683594 -13.554077 13.554077 -13.554077l54.21466 0l0 0c3.5947876 0 7.0422974 1.428009 9.5842285 3.9699097c2.54187 2.54187 3.9698486 5.9894104 3.9698486 9.5841675l0 59.34854c0 7.485718 -6.0683594 13.554077 -13.554077 13.554077l-54.21466 0c-7.485718 0 -13.554077 -6.0683594 -13.554077 -13.554077z" fill-rule="evenodd"/><path fill="#ffffff" d="m554.4818 505.82913l0 0c0 -12.5503235 10.174072 -22.724396 22.724426 -22.724396l0 0c6.0269165 0 11.806946 2.394165 16.068604 6.6558228c4.2616577 4.2616577 6.6558228 10.041687 6.6558228 16.068573l0 0c0 12.5503845 -10.174072 22.724396 -22.724426 22.724396l0 0c-12.550354 0 -22.724426 -10.174011 -22.724426 -22.724396z" fill-rule="evenodd"/><path stroke="#000000" stroke-width="1.0" stroke-linejoin="round" stroke-linecap="butt" d="m554.4818 505.82913l0 0c0 -12.5503235 10.174072 -22.724396 22.724426 -22.724396l0 0c6.0269165 0 11.806946 2.394165 16.068604 6.6558228c4.2616577 4.2616577 6.6558228 10.041687 6.6558228 16.068573l0 0c0 12.5503845 -10.174072 22.724396 -22.724426 22.724396l0 0c-12.550354 0 -22.724426 -10.174011 -22.724426 -22.724396z" fill-rule="evenodd"/><path fill="#000000" fill-opacity="0.0" d="m617.86847 473.51443l113.79523 0l0 64.62991l-113.79523 0z" fill-rule="evenodd"/><path fill="#000000" d="m627.66534 500.43445l2.25 -13.578125l8.265625 0l-0.25 1.53125l-6.546875 0l-0.71875 4.4375l6.09375 0l-0.265625 1.515625l-6.09375 0l-0.765625 4.578125l6.625 0l-0.25 1.515625l-8.34375 0zm10.176025 0l4.984375 -5.859375l-0.21875 1.265625l-2.875 -5.59375l1.84375 0l0.9375 1.984375q0.375 0.765625 0.609375 1.4375q0.25 0.65625 0.53125 1.265625l-0.859375 0q0.5 -0.609375 0.9375 -1.265625q0.4375 -0.671875 1.0625 -1.4375l1.609375 -1.984375l1.953125 0l-4.75 5.65625l0.203125 -1.203125l3.03125 5.734375l-1.859375 0l-1.125 -2.28125q-0.359375 -0.75 -0.609375 -1.390625q-0.234375 -0.640625 -0.515625 -1.234375l0.875 0q-0.484375 0.59375 -0.90625 1.234375q-0.421875 0.640625 -1.03125 1.390625l-1.890625 2.28125l-1.9375 0zm10.403137 3.8125l2.3125 -14.0l1.59375 0l-0.28125 1.640625l0.09375 0q0.21875 -0.3125 0.59375 -0.71875q0.390625 -0.421875 1.03125 -0.734375q0.640625 -0.3125 1.609375 -0.3125q1.109375 0 1.921875 0.5q0.828125 0.484375 1.265625 1.40625q0.453125 0.90625 0.453125 2.171875q0 1.171875 -0.359375 2.328125q-0.34375 1.15625 -1.015625 2.09375q-0.65625 0.921875 -1.625 1.484375q-0.953125 0.546875 -2.171875 0.546875q-0.984375 0 -1.546875 -0.34375q-0.546875 -0.34375 -0.8125 -0.78125q-0.25 -0.4375 -0.375 -0.71875l-0.15625 0l-0.890625 5.4375l-1.640625 0zm5.203125 -5.0625q0.90625 0 1.609375 -0.4375q0.703125 -0.453125 1.171875 -1.1875q0.484375 -0.734375 0.71875 -1.59375q0.25 -0.875 0.25 -1.71875q0 -1.171875 -0.5625 -1.90625q-0.546875 -0.75 -1.71875 -0.75q-0.921875 0 -1.609375 0.4375q-0.6875 0.421875 -1.15625 1.140625q-0.453125 0.71875 -0.6875 1.59375q-0.234375 0.875 -0.234375 1.765625q0 1.203125 0.546875 1.9375q0.5625 0.71875 1.671875 0.71875zm11.135559 1.46875q-1.265625 0 -2.15625 -0.484375q-0.890625 -0.5 -1.375 -1.421875q-0.484375 -0.921875 -0.484375 -2.203125q0 -1.34375 0.421875 -2.515625q0.4375 -1.1875 1.203125 -2.078125q0.765625 -0.890625 1.765625 -1.40625q1.0 -0.515625 2.15625 -0.515625q0.984375 0 1.71875 0.34375q0.734375 0.34375 1.125 0.96875q0.40625 0.625 0.40625 1.46875q0 0.859375 -0.453125 1.46875q-0.4375 0.59375 -1.359375 0.984375q-0.921875 0.375 -2.375 0.5625q-1.453125 0.171875 -3.46875 0.171875l0.21875 -1.234375q1.65625 0 2.78125 -0.09375q1.125 -0.09375 1.78125 -0.328125q0.65625 -0.234375 0.9375 -0.609375q0.296875 -0.390625 0.296875 -0.953125q0 -0.59375 -0.484375 -0.9375q-0.484375 -0.359375 -1.28125 -0.359375q-1.03125 0 -1.765625 0.5q-0.71875 0.5 -1.171875 1.28125q-0.453125 0.78125 -0.671875 1.65625q-0.203125 0.859375 -0.203125 1.609375q0 0.75 0.234375 1.359375q0.25 0.609375 0.8125 0.96875q0.5625 0.34375 1.484375 0.34375q0.984375 0 1.734375 -0.421875q0.765625 -0.421875 1.15625 -1.15625l1.515625 0.4375q-0.5625 1.203125 -1.78125 1.90625q-1.203125 0.6875 -2.71875 0.6875zm10.677612 0q-1.234375 0 -2.125 -0.515625q-0.875 -0.515625 -1.359375 -1.453125q-0.46875 -0.9375 -0.46875 -2.1875q0 -1.21875 0.375 -2.359375q0.375 -1.140625 1.078125 -2.046875q0.71875 -0.90625 1.734375 -1.4375q1.015625 -0.53125 2.296875 -0.53125q0.765625 0 1.40625 0.203125q0.640625 0.1875 1.125 0.5625q0.484375 0.375 0.796875 0.90625q0.3125 0.53125 0.40625 1.1875l-1.59375 0.359375q-0.046875 -0.390625 -0.21875 -0.703125q-0.15625 -0.328125 -0.4375 -0.5625q-0.265625 -0.234375 -0.640625 -0.359375q-0.375 -0.125 -0.875 -0.125q-0.921875 0 -1.640625 0.4375q-0.703125 0.4375 -1.203125 1.15625q-0.484375 0.71875 -0.734375 1.578125q-0.234375 0.859375 -0.234375 1.703125q0 0.765625 0.234375 1.390625q0.25 0.609375 0.765625 0.96875q0.515625 0.359375 1.34375 0.359375q0.53125 0 1.0 -0.140625q0.46875 -0.15625 0.859375 -0.40625q0.390625 -0.265625 0.671875 -0.609375q0.296875 -0.359375 0.46875 -0.765625l1.515625 0.53125q-0.3125 0.671875 -0.796875 1.203125q-0.46875 0.53125 -1.0625 0.90625q-0.578125 0.359375 -1.265625 0.546875q-0.6875 0.203125 -1.421875 0.203125zm12.15155 -10.40625l-0.234375 1.40625l-5.265625 0l0.234375 -1.40625l5.265625 0zm-3.328125 -2.421875l1.640625 0l-1.65625 9.96875q-0.109375 0.703125 0.125 1.015625q0.234375 0.296875 0.859375 0.296875q0.15625 0 0.40625 -0.03125q0.25 -0.046875 0.453125 -0.078125l0.109375 1.390625q-0.25 0.078125 -0.578125 0.125q-0.328125 0.046875 -0.671875 0.046875q-1.328125 0 -1.953125 -0.703125q-0.609375 -0.703125 -0.40625 -1.9375l1.671875 -10.09375zm7.845581 12.828125q-1.265625 0 -2.15625 -0.484375q-0.890625 -0.5 -1.375 -1.421875q-0.484375 -0.921875 -0.484375 -2.203125q0 -1.34375 0.421875 -2.515625q0.4375 -1.1875 1.203125 -2.078125q0.765625 -0.890625 1.765625 -1.40625q1.0 -0.515625 2.15625 -0.515625q0.984375 0 1.71875 0.34375q0.734375 0.34375 1.125 0.96875q0.40625 0.625 0.40625 1.46875q0 0.859375 -0.453125 1.46875q-0.4375 0.59375 -1.359375 0.984375q-0.921875 0.375 -2.375 0.5625q-1.453125 0.171875 -3.46875 0.171875l0.21875 -1.234375q1.65625 0 2.78125 -0.09375q1.125 -0.09375 1.78125 -0.328125q0.65625 -0.234375 0.9375 -0.609375q0.296875 -0.390625 0.296875 -0.953125q0 -0.59375 -0.484375 -0.9375q-0.484375 -0.359375 -1.28125 -0.359375q-1.03125 0 -1.765625 0.5q-0.71875 0.5 -1.171875 1.28125q-0.453125 0.78125 -0.671875 1.65625q-0.203125 0.859375 -0.203125 1.609375q0 0.75 0.234375 1.359375q0.25 0.609375 0.8125 0.96875q0.5625 0.34375 1.484375 0.34375q0.984375 0 1.734375 -0.421875q0.765625 -0.421875 1.15625 -1.15625l1.515625 0.4375q-0.5625 1.203125 -1.78125 1.90625q-1.203125 0.6875 -2.71875 0.6875zm10.349426 0q-1.671875 0 -2.65625 -1.09375q-0.96875 -1.109375 -0.96875 -3.0q0 -1.203125 0.34375 -2.34375q0.359375 -1.15625 1.015625 -2.078125q0.671875 -0.921875 1.625 -1.46875q0.96875 -0.546875 2.203125 -0.546875q1.0 0 1.546875 0.34375q0.5625 0.328125 0.8125 0.75q0.265625 0.421875 0.390625 0.703125l0.109375 0l0.84375 -5.0625l1.640625 0l-2.25 13.578125l-1.59375 0l0.28125 -1.578125l-0.171875 0q-0.21875 0.328125 -0.609375 0.75q-0.375 0.421875 -1.0 0.734375q-0.625 0.3125 -1.5625 0.3125zm0.28125 -1.46875q0.921875 0 1.609375 -0.4375q0.703125 -0.453125 1.15625 -1.1875q0.46875 -0.734375 0.703125 -1.625q0.25 -0.890625 0.25 -1.75q0 -1.1875 -0.5625 -1.890625q-0.546875 -0.703125 -1.6875 -0.703125q-0.921875 0 -1.609375 0.4375q-0.6875 0.421875 -1.15625 1.140625q-0.46875 0.71875 -0.71875 1.578125q-0.234375 0.859375 -0.234375 1.71875q0 1.1875 0.546875 1.953125q0.546875 0.765625 1.703125 0.765625z" fill-rule="nonzero"/><path fill="#000000" d="m627.66534 522.8344l2.25 -13.5780945l4.640625 0q1.609375 0 2.53125 0.546875q0.9375 0.546875 1.265625 1.5q0.34375 0.9530945 0.140625 2.1562195q-0.203125 1.1875 -0.859375 2.125q-0.640625 0.921875 -1.75 1.453125q-1.109375 0.53125 -2.6875 0.53125l-3.703125 0l0.265625 -1.546875l3.59375 0q1.078125 0 1.78125 -0.3125q0.71875 -0.3125 1.109375 -0.890625q0.40625 -0.578125 0.53125 -1.359375q0.203125 -1.28125 -0.40625 -1.9687195q-0.59375 -0.703125 -2.15625 -0.703125l-2.828125 0l-2.0 12.0468445l-1.71875 0zm7.796875 0l-2.265625 -6.109375l1.9375 0l2.328125 6.109375l-2.0 0zm8.014099 0.21875q-1.265625 0 -2.15625 -0.484375q-0.890625 -0.5 -1.375 -1.421875q-0.484375 -0.921875 -0.484375 -2.203125q0 -1.34375 0.421875 -2.515625q0.4375 -1.1875 1.203125 -2.078125q0.765625 -0.890625 1.765625 -1.40625q1.0 -0.515625 2.15625 -0.515625q0.984375 0 1.71875 0.34375q0.734375 0.34375 1.125 0.96875q0.40625 0.625 0.40625 1.46875q0 0.859375 -0.453125 1.46875q-0.4375 0.59375 -1.359375 0.984375q-0.921875 0.375 -2.375 0.5625q-1.453125 0.171875 -3.46875 0.171875l0.21875 -1.234375q1.65625 0 2.78125 -0.09375q1.125 -0.09375 1.78125 -0.328125q0.65625 -0.234375 0.9375 -0.609375q0.296875 -0.390625 0.296875 -0.953125q0 -0.59375 -0.484375 -0.9375q-0.484375 -0.359375 -1.28125 -0.359375q-1.03125 0 -1.765625 0.5q-0.71875 0.5 -1.171875 1.28125q-0.453125 0.78125 -0.671875 1.65625q-0.203125 0.859375 -0.203125 1.609375q0 0.75 0.234375 1.359375q0.25 0.609375 0.8125 0.96875q0.5625 0.34375 1.484375 0.34375q0.984375 0 1.734375 -0.421875q0.765625 -0.421875 1.15625 -1.15625l1.515625 0.4375q-0.5625 1.203125 -1.78125 1.90625q-1.203125 0.6875 -2.71875 0.6875zm8.418518 -0.21875l-1.40625 -10.1875l1.734375 0l0.5 4.453125q0.109375 0.90625 0.203125 2.0625q0.109375 1.140625 0.15625 2.609375l-0.28125 0q0.5 -1.390625 0.96875 -2.546875q0.46875 -1.15625 0.90625 -2.125l1.953125 -4.453125l1.75 0l0.46875 4.453125q0.09375 0.90625 0.171875 2.0625q0.09375 1.140625 0.140625 2.609375l-0.296875 0q0.515625 -1.40625 0.984375 -2.546875q0.484375 -1.140625 0.921875 -2.125l1.96875 -4.453125l1.75 0l-4.78125 10.1875l-1.625 0l-0.5625 -4.609375q-0.078125 -0.640625 -0.15625 -1.359375q-0.0625 -0.734375 -0.125 -1.515625q-0.046875 -0.78125 -0.109375 -1.609375l0.359375 0q-0.328125 0.8125 -0.65625 1.59375q-0.3125 0.78125 -0.625 1.515625q-0.3125 0.71875 -0.609375 1.390625l-2.078125 4.59375l-1.625 0zm16.414612 0.21875q-1.265625 0 -2.125 -0.640625q-0.859375 -0.65625 -1.21875 -1.84375q-0.34375 -1.203125 -0.078125 -2.8125q0.265625 -1.625 1.015625 -2.78125q0.75 -1.171875 1.828125 -1.8125q1.078125 -0.640625 2.359375 -0.640625q0.96875 0 1.5 0.328125q0.53125 0.3125 0.765625 0.734375q0.25 0.40625 0.375 0.703125l0.140625 0l0.265625 -1.640625l1.640625 0l-1.671875 10.1875l-1.609375 0l0.265625 -1.578125l-0.1875 0q-0.234375 0.296875 -0.625 0.734375q-0.390625 0.421875 -1.03125 0.75q-0.640625 0.3125 -1.609375 0.3125zm0.515625 -1.46875q0.9375 0 1.640625 -0.484375q0.71875 -0.5 1.1875 -1.359375q0.484375 -0.875 0.65625 -2.0q0.203125 -1.125 0.015625 -1.96875q-0.1875 -0.84375 -0.75 -1.3125q-0.5625 -0.46875 -1.484375 -0.46875q-0.984375 0 -1.71875 0.515625q-0.734375 0.5 -1.203125 1.34375q-0.453125 0.84375 -0.625 1.890625q-0.171875 1.0625 0.015625 1.9375q0.1875 0.875 0.75 1.390625q0.5625 0.515625 1.515625 0.515625zm7.1538086 1.25l1.6875 -10.1875l1.59375 0l-0.265625 1.5625l0.109375 0q0.40625 -0.765625 1.203125 -1.234375q0.8125 -0.46875 1.734375 -0.46875q0.171875 0 0.421875 0.015625q0.25 0 0.390625 0.015625l-0.265625 1.640625q-0.109375 -0.015625 -0.390625 -0.046875q-0.28125 -0.046875 -0.578125 -0.046875q-0.734375 0 -1.359375 0.3125q-0.625 0.296875 -1.046875 0.84375q-0.40625 0.53125 -0.53125 1.21875l-1.0625 6.375l-1.640625 0zm10.61322 0.21875q-1.671875 0 -2.65625 -1.09375q-0.96875 -1.109375 -0.96875 -3.0q0 -1.203125 0.34375 -2.34375q0.359375 -1.15625 1.015625 -2.078125q0.671875 -0.921875 1.625 -1.46875q0.96875 -0.546875 2.203125 -0.546875q1.0 0 1.546875 0.34375q0.5625 0.328125 0.8125 0.75q0.265625 0.421875 0.390625 0.703125l0.109375 0l0.84375 -5.0624695l1.640625 0l-2.25 13.5780945l-1.59375 0l0.28125 -1.578125l-0.171875 0q-0.21875 0.328125 -0.609375 0.75q-0.375 0.421875 -1.0 0.734375q-0.625 0.3125 -1.5625 0.3125zm0.28125 -1.46875q0.921875 0 1.609375 -0.4375q0.703125 -0.453125 1.15625 -1.1875q0.46875 -0.734375 0.703125 -1.625q0.25 -0.890625 0.25 -1.75q0 -1.1875 -0.5625 -1.890625q-0.546875 -0.703125 -1.6875 -0.703125q-0.921875 0 -1.609375 0.4375q-0.6875 0.421875 -1.15625 1.140625q-0.46875 0.71875 -0.71875 1.578125q-0.234375 0.859375 -0.234375 1.71875q0 1.1875 0.546875 1.953125q0.546875 0.765625 1.703125 0.765625z" fill-rule="nonzero"/><path fill="#000000" fill-opacity="0.0" d="m473.0118 421.5013l208.37796 0l0 42.015747l-208.37796 0z" fill-rule="evenodd"/><path fill="#000000" d="m518.53625 448.42133l-3.4375 0l0 -2.125l3.3125 0q1.40625 0 2.359375 -0.515625q0.953125 -0.515625 1.421875 -1.546875q0.484375 -1.046875 0.484375 -2.609375q0 -1.5625 -0.46875 -2.578125q-0.46875 -1.03125 -1.40625 -1.546875q-0.9375 -0.515625 -2.328125 -0.515625l-3.453125 0l0 -2.140625l3.59375 0q2.03125 0 3.484375 0.8125q1.453125 0.8125 2.234375 2.34375q0.78125 1.515625 0.78125 3.625q0 2.109375 -0.78125 3.640625q-0.78125 1.53125 -2.265625 2.34375q-1.46875 0.8125 -3.53125 0.8125zm-2.15625 -13.578125l0 13.578125l-2.453125 0l0 -13.578125l2.453125 0zm14.761108 13.78125q-1.53125 0 -2.640625 -0.640625q-1.109375 -0.640625 -1.703125 -1.8125q-0.59375 -1.1875 -0.59375 -2.78125q0 -1.578125 0.578125 -2.765625q0.59375 -1.1875 1.671875 -1.84375q1.078125 -0.671875 2.53125 -0.671875q0.9375 0 1.78125 0.3125q0.84375 0.296875 1.5 0.921875q0.65625 0.625 1.015625 1.59375q0.375 0.96875 0.375 2.3125l0 0.75l-8.34375 0l0 -1.625l7.15625 0l-1.125 0.484375q0 -0.875 -0.265625 -1.515625q-0.265625 -0.640625 -0.78125 -1.0q-0.515625 -0.359375 -1.296875 -0.359375q-0.765625 0 -1.3125 0.359375q-0.546875 0.359375 -0.828125 0.984375q-0.28125 0.609375 -0.28125 1.359375l0 1.125q0 0.921875 0.3125 1.59375q0.328125 0.65625 0.90625 1.0q0.59375 0.34375 1.375 0.34375q0.515625 0 0.9375 -0.140625q0.421875 -0.140625 0.71875 -0.4375q0.3125 -0.296875 0.484375 -0.734375l2.234375 0.265625q-0.21875 0.875 -0.8125 1.546875q-0.578125 0.65625 -1.5 1.015625q-0.90625 0.359375 -2.09375 0.359375zm8.21167 -6.15625l0 5.953125l-2.390625 0l0 -10.1875l2.34375 0l0 1.75l0.125 0q0.34375 -0.859375 1.078125 -1.359375q0.75 -0.515625 1.890625 -0.515625q1.0625 0 1.84375 0.453125q0.78125 0.4375 1.203125 1.296875q0.4375 0.859375 0.4375 2.078125l0 6.484375l-2.390625 0l0 -6.109375q0 -1.015625 -0.53125 -1.59375q-0.515625 -0.578125 -1.453125 -0.578125q-0.625 0 -1.125 0.28125q-0.484375 0.265625 -0.765625 0.78125q-0.265625 0.515625 -0.265625 1.265625zm16.3443 -1.53125l-2.1875 0.234375q-0.125 -0.5 -0.59375 -0.890625q-0.453125 -0.390625 -1.28125 -0.390625q-0.734375 0 -1.25 0.328125q-0.5 0.328125 -0.5 0.84375q0 0.4375 0.328125 0.734375q0.328125 0.28125 1.109375 0.453125l1.734375 0.375q1.4375 0.296875 2.140625 0.984375q0.71875 0.671875 0.71875 1.765625q0 0.953125 -0.5625 1.6875q-0.546875 0.734375 -1.53125 1.15625q-0.984375 0.40625 -2.25 0.40625q-1.875 0 -3.015625 -0.78125q-1.125 -0.796875 -1.359375 -2.203125l2.34375 -0.21875q0.15625 0.6875 0.671875 1.046875q0.53125 0.34375 1.359375 0.34375q0.84375 0 1.359375 -0.34375q0.53125 -0.359375 0.53125 -0.875q0 -0.859375 -1.375 -1.15625l-1.734375 -0.375q-1.46875 -0.3125 -2.171875 -1.03125q-0.703125 -0.71875 -0.703125 -1.828125q0 -0.9375 0.515625 -1.625q0.53125 -0.703125 1.453125 -1.078125q0.9375 -0.390625 2.15625 -0.390625q1.796875 0 2.8125 0.78125q1.03125 0.765625 1.28125 2.046875zm6.0063477 7.6875q-1.53125 0 -2.640625 -0.640625q-1.109375 -0.640625 -1.703125 -1.8125q-0.59375 -1.1875 -0.59375 -2.78125q0 -1.578125 0.578125 -2.765625q0.59375 -1.1875 1.671875 -1.84375q1.078125 -0.671875 2.53125 -0.671875q0.9375 0 1.78125 0.3125q0.84375 0.296875 1.5 0.921875q0.65625 0.625 1.015625 1.59375q0.375 0.96875 0.375 2.3125l0 0.75l-8.34375 0l0 -1.625l7.15625 0l-1.125 0.484375q0 -0.875 -0.265625 -1.515625q-0.265625 -0.640625 -0.78125 -1.0q-0.515625 -0.359375 -1.296875 -0.359375q-0.765625 0 -1.3125 0.359375q-0.546875 0.359375 -0.828125 0.984375q-0.28125 0.609375 -0.28125 1.359375l0 1.125q0 0.921875 0.3125 1.59375q0.328125 0.65625 0.90625 1.0q0.59375 0.34375 1.375 0.34375q0.515625 0 0.9375 -0.140625q0.421875 -0.140625 0.71875 -0.4375q0.3125 -0.296875 0.484375 -0.734375l2.234375 0.265625q-0.21875 0.875 -0.8125 1.546875q-0.578125 0.65625 -1.5 1.015625q-0.90625 0.359375 -2.09375 0.359375zm6.242981 -5.734375q0 -1.484375 0.296875 -3.109375q0.296875 -1.640625 0.828125 -3.140625q0.53125 -1.515625 1.21875 -2.625l2.25 0q-0.671875 1.421875 -1.15625 2.96875q-0.484375 1.53125 -0.75 3.046875q-0.25 1.5 -0.25 2.859375q0 1.1875 0.21875 2.40625q0.21875 1.203125 0.6875 2.59375q0.484375 1.375 1.25 3.078125l-2.25 0q-1.15625 -1.9375 -1.75 -3.984375q-0.59375 -2.046875 -0.59375 -4.09375zm11.105896 -8.046875l0 13.578125l-2.4375 0l0 -11.171875l-0.078125 0l-3.171875 2.03125l0 -2.265625l3.375 -2.171875l2.3125 0zm1.7564087 17.0625l0.8125 -5.5l2.453125 0l-1.59375 5.5l-1.671875 0zm11.57019 -17.0625l0 13.578125l-2.390625 0l0 -13.578125l2.390625 0zm1.7724609 13.578125l0 -10.1875l2.390625 0l0 10.1875l-2.390625 0zm1.1875 -11.609375q-0.578125 0 -0.984375 -0.375q-0.40625 -0.390625 -0.40625 -0.9375q0 -0.546875 0.40625 -0.921875q0.40625 -0.390625 0.984375 -0.390625q0.5625 0 0.96875 0.390625q0.421875 0.375 0.421875 0.921875q0 0.546875 -0.421875 0.9375q-0.40625 0.375 -0.96875 0.375zm5.36615 5.65625l0 5.953125l-2.390625 0l0 -10.1875l2.34375 0l0 1.75l0.125 0q0.34375 -0.859375 1.078125 -1.359375q0.75 -0.515625 1.890625 -0.515625q1.0625 0 1.84375 0.453125q0.78125 0.4375 1.203125 1.296875q0.4375 0.859375 0.4375 2.078125l0 6.484375l-2.390625 0l0 -6.109375q0 -1.015625 -0.53125 -1.59375q-0.515625 -0.578125 -1.453125 -0.578125q-0.625 0 -1.125 0.28125q-0.484375 0.265625 -0.765625 0.78125q-0.265625 0.515625 -0.265625 1.265625zm12.813049 6.15625q-1.53125 0 -2.640625 -0.640625q-1.109375 -0.640625 -1.703125 -1.8125q-0.59375 -1.1875 -0.59375 -2.78125q0 -1.578125 0.578125 -2.765625q0.59375 -1.1875 1.671875 -1.84375q1.078125 -0.671875 2.53125 -0.671875q0.9375 0 1.78125 0.3125q0.84375 0.296875 1.5 0.921875q0.65625 0.625 1.015625 1.59375q0.375 0.96875 0.375 2.3125l0 0.75l-8.34375 0l0 -1.625l7.15625 0l-1.125 0.484375q0 -0.875 -0.265625 -1.515625q-0.265625 -0.640625 -0.78125 -1.0q-0.515625 -0.359375 -1.296875 -0.359375q-0.765625 0 -1.3125 0.359375q-0.546875 0.359375 -0.828125 0.984375q-0.28125 0.609375 -0.28125 1.359375l0 1.125q0 0.921875 0.3125 1.59375q0.328125 0.65625 0.90625 1.0q0.59375 0.34375 1.375 0.34375q0.515625 0 0.9375 -0.140625q0.421875 -0.140625 0.71875 -0.4375q0.3125 -0.296875 0.484375 -0.734375l2.234375 0.265625q-0.21875 0.875 -0.8125 1.546875q-0.578125 0.65625 -1.5 1.015625q-0.90625 0.359375 -2.09375 0.359375zm8.74292 0q-0.96875 0 -1.75 -0.34375q-0.765625 -0.34375 -1.21875 -1.03125q-0.4375 -0.6875 -0.4375 -1.6875q0 -0.859375 0.3125 -1.421875q0.3125 -0.5625 0.859375 -0.890625q0.5625 -0.34375 1.25 -0.515625q0.703125 -0.1875 1.4375 -0.265625q0.90625 -0.09375 1.453125 -0.15625q0.5625 -0.078125 0.8125 -0.234375q0.25 -0.171875 0.25 -0.53125l0 -0.046875q0 -0.734375 -0.4375 -1.140625q-0.4375 -0.40625 -1.28125 -0.40625q-0.875 0 -1.390625 0.390625q-0.515625 0.375 -0.703125 0.890625l-2.234375 -0.3125q0.265625 -0.9375 0.875 -1.5625q0.609375 -0.625 1.484375 -0.9375q0.890625 -0.3125 1.953125 -0.3125q0.734375 0 1.453125 0.171875q0.734375 0.171875 1.34375 0.578125q0.609375 0.390625 0.96875 1.0625q0.375 0.671875 0.375 1.6875l0 6.8125l-2.3125 0l0 -1.40625l-0.0625 0q-0.21875 0.421875 -0.625 0.796875q-0.390625 0.359375 -0.984375 0.59375q-0.578125 0.21875 -1.390625 0.21875zm0.609375 -1.765625q0.734375 0 1.265625 -0.28125q0.53125 -0.28125 0.8125 -0.765625q0.296875 -0.484375 0.296875 -1.046875l0 -1.1875q-0.125 0.09375 -0.390625 0.171875q-0.25 0.078125 -0.59375 0.140625q-0.34375 0.0625 -0.671875 0.109375q-0.3125 0.046875 -0.546875 0.0625q-0.546875 0.078125 -0.96875 0.25q-0.421875 0.171875 -0.671875 0.46875q-0.234375 0.28125 -0.234375 0.75q0 0.65625 0.484375 1.0q0.484375 0.328125 1.21875 0.328125zm6.5438843 1.5625l0 -10.1875l2.3125 0l0 1.71875l0.109375 0q0.28125 -0.890625 0.953125 -1.375q0.6875 -0.484375 1.5625 -0.484375q0.1875 0 0.4375 0.03125q0.25 0.015625 0.421875 0.046875l0 2.203125q-0.15625 -0.0625 -0.484375 -0.09375q-0.328125 -0.046875 -0.625 -0.046875q-0.671875 0 -1.1875 0.296875q-0.515625 0.28125 -0.8125 0.78125q-0.296875 0.484375 -0.296875 1.140625l0 5.96875l-2.390625 0zm6.14209 2.546875q0.765625 -1.703125 1.234375 -3.078125q0.484375 -1.390625 0.703125 -2.59375q0.21875 -1.21875 0.21875 -2.40625q0 -1.359375 -0.265625 -2.859375q-0.25 -1.515625 -0.734375 -3.046875q-0.46875 -1.546875 -1.15625 -2.96875l2.234375 0q0.703125 1.109375 1.21875 2.625q0.53125 1.5 0.828125 3.140625q0.3125 1.625 0.3125 3.109375q0 2.046875 -0.609375 4.09375q-0.59375 2.046875 -1.75 3.984375l-2.234375 0z" fill-rule="nonzero"/><path fill="#ffffff" d="m196.26772 308.28873l26.110245 0l0 -10.503937l21.007874 21.007874l-21.007874 21.007874l0 -10.503937l-26.110245 0z" fill-rule="evenodd"/><path stroke="#000000" stroke-width="1.0" stroke-linejoin="round" stroke-linecap="butt" d="m196.26772 308.28873l26.110245 0l0 -10.503937l21.007874 21.007874l-21.007874 21.007874l0 -10.503937l-26.110245 0z" fill-rule="evenodd"/><path fill="#ffffff" d="m366.48492 199.97375l53.0394 0l0 -10.503937l21.007874 21.007874l-21.007874 21.007874l0 -10.503937l-53.0394 0z" fill-rule="evenodd"/><path stroke="#000000" stroke-width="1.0" stroke-linejoin="round" stroke-linecap="butt" d="m366.48492 199.97375l53.0394 0l0 -10.503937l21.007874 21.007874l-21.007874 21.007874l0 -10.503937l-53.0394 0z" fill-rule="evenodd"/><path fill="#ffffff" d="m367.9508 432.00525l53.0394 0l0 -10.503937l21.007874 21.007874l-21.007874 21.007874l0 -10.503937l-53.0394 0z" fill-rule="evenodd"/><path stroke="#000000" stroke-width="1.0" stroke-linejoin="round" stroke-linecap="butt" d="m367.9508 432.00525l53.0394 0l0 -10.503937l21.007874 21.007874l-21.007874 21.007874l0 -10.503937l-53.0394 0z" fill-rule="evenodd"/></g></svg>